<svg xmlns="http://www.w3.org/2000/svg" xmlns:xlink="http://www.w3.org/1999/xlink" xmlns:lucid="lucid" width="1200" height="580"><g transform="translate(640 -260)" lucid:page-tab-id="0_0"><path d="M-1806.87 0h3677.74v1322.83h-3677.74z" fill="#fff"/><path d="M-380 366.27c0-3.32 2.7-6 6-6h168c3.3 0 6 2.68 6 6v68c0 3.3-2.7 6-6 6h-168c-3.3 0-6-2.7-6-6z" stroke="#333" fill="#fff"/><use xlink:href="#a" transform="matrix(1,0,0,1,-368,372.2666666666667) translate(30.561728395061728 31.77777777777778)"/><path d="M244.5 360.5h-24v-1h24zm95 0h-24v-1h24z" stroke="#3a414a" stroke-width=".05" fill="#3a414a"/><path fill="#fff"/><path d="M211 370h-1v-20h1z" stroke="#3a414a" stroke-width=".05" fill="#3a414a"/><path fill="#fff"/><path d="M220.5 360.5h-20v-1h20z" stroke="#3a414a" stroke-width=".05" fill="#3a414a"/><path fill="#fff"/><path d="M221 370h-1v-20h1z" stroke="#3a414a" stroke-width=".05" fill="#3a414a"/><path fill="#fff"/><path d="M350 370h-1v-20h1z" stroke="#3a414a" stroke-width=".05" fill="#3a414a"/><path fill="#fff"/><path d="M359.5 360.5h-20v-1h20z" stroke="#3a414a" stroke-width=".05" fill="#3a414a"/><path fill="#fff"/><path d="M340 370h-1v-20h1z" stroke="#3a414a" stroke-width=".05" fill="#3a414a"/><use xlink:href="#b" transform="matrix(1,0,0,1,244.50617283950618,346.6666666666667) translate(0 17.77777777777778)"/><path d="M110.5 519.5h-1v-26.17h1zm0-52.83h-1V440.5h1z" stroke="#3a414a" stroke-width=".05" fill="#3a414a"/><path d="M120 420.72l-10 20-10-20" fill="#fff" fill-opacity="0"/><path d="M120.45 420.95L110 441.85l-10.45-20.9.9-.45 9.55 19.1 9.55-19.1z" stroke="#3a414a" stroke-width=".05" fill="#3a414a"/><path fill="#fff"/><path d="M110.5 440.72h-1v-20h1z" stroke="#3a414a" stroke-width=".05" fill="#3a414a"/><path fill="#fff"/><path d="M120 441.22h-20v-1h20z" stroke="#3a414a" stroke-width=".05" fill="#3a414a"/><path fill="#fff"/><path d="M120 530h-20v-1h20z" stroke="#3a414a" stroke-width=".05" fill="#3a414a"/><path fill="#fff"/><path d="M110.5 539.5h-1v-20h1z" stroke="#3a414a" stroke-width=".05" fill="#3a414a"/><path fill="#fff"/><path d="M120 520h-20v-1h20z" stroke="#3a414a" stroke-width=".05" fill="#3a414a"/><use xlink:href="#c" transform="matrix(1,0,0,1,77.28395061728395,466.6666666666667) translate(0 17.77777777777778)"/><path d="M260.5 774.07l-.87 3.22-2.34 2.33-3.23.87H220.5v-1h33.43l2.84-.77 1.96-1.96.77-2.84V676.4h1zm-3.2-365.43l2.33 2.34.87 3.22v235.53h-1v-235.4l-.77-2.83-1.96-1.97-2.84-.76H240v-1h14.07z" stroke="#3a414a" stroke-width=".05" fill="#3a414a"/><path d="M200.72 398.27l20 10-20 10" fill="#fff" fill-opacity="0"/><path d="M221.84 408.27l-20.9 10.44-.44-.88 19.1-9.55-19.1-9.56.45-.88z" stroke="#3a414a" stroke-width=".05" fill="#3a414a"/><path fill="#fff"/><path d="M220.72 408.77h-20v-1h20z" stroke="#3a414a" stroke-width=".05" fill="#3a414a"/><path d="M240.72 408.27l-.5 3.16-1.43 2.74-2.17 2.17-2.75 1.42-3.16.5-3.16-.5-2.74-1.42-2.17-2.17-1.42-2.74-.5-3.16.5-3.16 1.42-2.74 2.17-2.16 2.74-1.42 3.16-.5 3.16.5 2.75 1.42 2.16 2.16 1.4 2.75.52 3.17" fill="#fff"/><path d="M234.04 398.3l2.9 1.5 2.26 2.26 1.5 2.9.52 3.23-.5.07.5.08-.53 3.24-1.5 2.87-2.27 2.28-2.9 1.5-3.3.52-3.33-.53-2.88-1.5-2.28-2.27-1.5-2.88-.52-3.33.53-3.32 1.5-2.9 2.27-2.26 2.88-1.5 3.32-.54zm-6.32.96l-2.6 1.34-2.06 2.06-1.35 2.6-.47 3 .48 3 1.36 2.6 2.06 2.07 2.6 1.35 3 .48 3-.48 2.6-1.35 2.07-2.06 1.33-2.6.5-3-.5-3-1.34-2.6-2.07-2.07-2.6-1.34-3-.5z" stroke="#3a414a" stroke-width=".05" fill="#3a414a"/><path fill="#fff"/><path d="M211 790h-1v-20h1z" stroke="#3a414a" stroke-width=".05" fill="#3a414a"/><path fill="#fff"/><path d="M220.5 780.5h-20v-1h20z" stroke="#3a414a" stroke-width=".05" fill="#3a414a"/><path fill="#fff"/><path d="M221 790h-1v-20h1z" stroke="#3a414a" stroke-width=".05" fill="#3a414a"/><use xlink:href="#d" transform="matrix(1,0,0,1,182.80864197530866,649.7262111352132) translate(0 17.77777777777778)"/><use xlink:href="#e" transform="matrix(1,0,0,1,182.80864197530866,649.7262111352132) translate(132.28395061728395 17.77777777777778)"/><path d="M-620 286c0-3.3 2.7-6 6-6h168c3.3 0 6 2.7 6 6v68c0 3.3-2.7 6-6 6h-168c-3.3 0-6-2.7-6-6z" stroke="#333" fill="#fff"/><use xlink:href="#f" transform="matrix(1,0,0,1,-608,292) translate(45.99382716049382 31.77777777777778)"/><path d="M-380 556.13c0-3.3 2.7-6 6-6h168c3.3 0 6 2.7 6 6v68c0 3.32-2.7 6-6 6h-168c-3.3 0-6-2.68-6-6z" stroke="#333" fill="#fff"/><use xlink:href="#g" transform="matrix(1,0,0,1,-368,562.1333333333333) translate(17.043209876543216 31.77777777777778)"/><path d="M-380 746c0-3.3 2.7-6 6-6h168c3.3 0 6 2.7 6 6v68c0 3.3-2.7 6-6 6h-168c-3.3 0-6-2.7-6-6z" stroke="#333" fill="#fff"/><use xlink:href="#h" transform="matrix(1,0,0,1,-368,752) translate(48.462962962962976 31.777777777777775)"/><path d="M20 746c0-3.3 2.7-6 6-6h168c3.3 0 6 2.7 6 6v68c0 3.3-2.7 6-6 6H26c-3.3 0-6-2.7-6-6z" stroke="#333" fill="#fff"/><use xlink:href="#i" transform="matrix(1,0,0,1,32,752) translate(11.487654320987659 31.77777777777778)"/><path d="M-153.12 780.5h-26.38v-1h26.38zm152.62 0h-26.38v-1H-.5z" stroke="#3a414a" stroke-width=".05" fill="#3a414a"/><path d="M-199.28 770l20 10-20 10" fill="#fff" fill-opacity="0"/><path d="M-178.16 780l-20.9 10.45-.44-.9 19.1-9.55-19.1-9.55.45-.9z" stroke="#3a414a" stroke-width=".05" fill="#3a414a"/><path fill="#fff"/><path d="M-179.28 780.5h-20v-1h20z" stroke="#3a414a" stroke-width=".05" fill="#3a414a"/><path fill="#fff"/><path d="M-178.78 790h-1v-20h1z" stroke="#3a414a" stroke-width=".05" fill="#3a414a"/><path fill="#fff"/><path d="M10 790H9v-20h1z" stroke="#3a414a" stroke-width=".05" fill="#3a414a"/><path fill="#fff"/><path d="M19.5 780.5h-20v-1h20z" stroke="#3a414a" stroke-width=".05" fill="#3a414a"/><path fill="#fff"/><path d="M0 790h-1v-20h1z" stroke="#3a414a" stroke-width=".05" fill="#3a414a"/><use xlink:href="#j" transform="matrix(1,0,0,1,-153.11728395061726,766.6666666666666) translate(0 17.77777777777778)"/><use xlink:href="#k" transform="matrix(1,0,0,1,-153.11728395061726,766.6666666666666) translate(104.13580246913578 17.77777777777778)"/><path d="M20 346c0-3.3 2.7-6 6-6h168c3.3 0 6 2.7 6 6v68c0 3.3-2.7 6-6 6H26c-3.3 0-6-2.7-6-6z" stroke="#333" fill="#fff"/><use xlink:href="#l" transform="matrix(1,0,0,1,32,352) translate(45.99382716049383 31.77777777777778)"/><path d="M360 326c0-3.3 2.7-6 6-6h168c3.3 0 6 2.7 6 6v68c0 3.3-2.7 6-6 6H366c-3.3 0-6-2.7-6-6z" stroke="#333" fill="#fff"/><use xlink:href="#m" transform="matrix(1,0,0,1,372,332) translate(41.02469135802469 31.77777777777778)"/><path d="M20 546c0-3.3 2.7-6 6-6h168c3.3 0 6 2.7 6 6v68c0 3.3-2.7 6-6 6H26c-3.3 0-6-2.7-6-6z" stroke="#333" fill="#fff"/><use xlink:href="#n" transform="matrix(1,0,0,1,32,552) translate(22.567901234567906 31.77777777777778)"/><path d="M-420 773.93l.77 2.84 1.96 1.96 2.84.77h13.93v1h-14.07l-3.22-.87-2.33-2.34-.87-3.23V698.4h1zm19.5-183.3h-13.93l-2.84.77-1.96 1.96-.77 2.84v75.53h-1v-75.66l.87-3.22 2.34-2.35 3.23-.87h14.07z" stroke="#3a414a" stroke-width=".05" fill="#3a414a"/><path d="M-380.72 790l-20-10 20-10" fill="#fff" fill-opacity="0"/><path d="M-380.5 770.45l-19.1 9.55 19.1 9.55-.45.9-20.9-10.45 20.9-10.45z" stroke="#3a414a" stroke-width=".05" fill="#3a414a"/><path fill="#fff"/><path d="M-380.72 780.5h-20v-1h20z" stroke="#3a414a" stroke-width=".05" fill="#3a414a"/><path fill="#fff"/><path d="M-400.22 790h-1v-20h1z" stroke="#3a414a" stroke-width=".05" fill="#3a414a"/><path fill="#fff"/><path d="M-390 600.13h-1v-20h1z" stroke="#3a414a" stroke-width=".05" fill="#3a414a"/><path fill="#fff"/><path d="M-380.5 590.63h-20v-1h20z" stroke="#3a414a" stroke-width=".05" fill="#3a414a"/><path fill="#fff"/><path d="M-400 600.13h-1v-20h1z" stroke="#3a414a" stroke-width=".05" fill="#3a414a"/><use xlink:href="#c" transform="matrix(1,0,0,1,-453.21604938271605,671.7333333333332) translate(0 17.77777777777778)"/><path d="M-290.6 529.63h-1v-11.3h1zm1.1-37.96h-1v-11.4h1z" stroke="#3a414a" stroke-width=".05" fill="#3a414a"/><path fill="#fff"/><path d="M-281.1 540.13h-20v-1h20z" stroke="#3a414a" stroke-width=".05" fill="#3a414a"/><path fill="#fff"/><path d="M-290.6 549.63h-1v-20h1z" stroke="#3a414a" stroke-width=".05" fill="#3a414a"/><path fill="#fff"/><path d="M-281.1 530.13h-20v-1h20z" stroke="#3a414a" stroke-width=".05" fill="#3a414a"/><path d="M-280 441l-10 20-10-20" fill="#fff" fill-opacity="0"/><path d="M-279.55 441.2L-290 462.1l-10.45-20.9.9-.43 9.55 19.1 9.55-19.1z" stroke="#3a414a" stroke-width=".05" fill="#3a414a"/><path fill="#fff"/><path d="M-289.5 461h-1v-20h1z" stroke="#3a414a" stroke-width=".05" fill="#3a414a"/><path d="M-280 471l-.5 3.15-1.43 2.75-2.16 2.16-2.74 1.42-3.16.5-3.16-.5-2.75-1.42-2.17-2.16-1.42-2.75-.5-3.16.5-3.17 1.43-2.75 2.16-2.16 2.74-1.42 3.16-.5 3.16.5 2.75 1.42 2.17 2.16 1.42 2.75.5 3.16" fill="#fff"/><path d="M-286.68 461.02l2.88 1.5 2.28 2.27 1.5 2.87.5 3.24-.48.1.5.07-.53 3.24-1.5 2.9-2.27 2.27-2.88 1.5-3.32.53-3.32-.54-2.88-1.5-2.28-2.27-1.5-2.9-.53-3.3.53-3.33 1.5-2.88 2.27-2.3 2.88-1.48 3.32-.54zm-6.32.96l-2.6 1.35-2.06 2.05-1.35 2.6-.5 3 .5 3 1.34 2.62 2.05 2.05 2.6 1.35 3 .48 3-.48 2.6-1.35 2.06-2.05 1.35-2.6.5-3-.5-3-1.34-2.62-2.05-2.05-2.6-1.35-3-.48z" stroke="#3a414a" stroke-width=".05" fill="#3a414a"/><use xlink:href="#o" transform="matrix(1,0,0,1,-323.81564912024896,491.66901408450707) translate(0 17.77777777777778)"/><path d="M-69.5 674.07l-.87 3.22-2.34 2.33-3.23.87h-208l-2.84.77-1.96 1.96-.77 2.84v33.43h-1v-33.57l.87-3.22 2.34-2.33 3.23-.87h208l2.84-.77 1.96-1.96.77-2.84v-23.9h1zm106.6-210l-.87 3.22-2.34 2.33-3.23.87h-94.6l-2.84.77-1.96 1.96-.77 2.84v147.3h-1V475.93l.87-3.22 2.34-2.33 3.23-.87h94.6l2.84-.77 1.96-1.96.77-2.84V460h1z" stroke="#3a414a" stroke-width=".05" fill="#3a414a"/><path d="M46.6 420.72l-10 20-10-20" fill="#fff" fill-opacity="0"/><path d="M47.05 420.95l-10.45 20.9-10.45-20.9.9-.45 9.55 19.1 9.55-19.1z" stroke="#3a414a" stroke-width=".05" fill="#3a414a"/><path fill="#fff"/><path d="M37.1 440.72h-1v-20h1z" stroke="#3a414a" stroke-width=".05" fill="#3a414a"/><path d="M46.6 450.72l-.5 3.16-1.43 2.75-2.16 2.16-2.74 1.4-3.16.52-3.16-.5-2.75-1.43-2.17-2.17-1.42-2.75-.5-3.16.5-3.16 1.43-2.74 2.16-2.17 2.74-1.42 3.16-.5 3.16.5 2.75 1.42 2.17 2.17 1.42 2.74.5 3.16" fill="#fff"/><path d="M39.92 440.75l2.9 1.5 2.26 2.27 1.5 2.88.5 3.24-.48.08.5.08-.53 3.24-1.5 2.9-2.26 2.26-2.88 1.5-3.32.53-3.32-.54-2.88-1.5-2.28-2.27-1.5-2.9-.53-3.3.53-3.33 1.5-2.88 2.27-2.28 2.88-1.5 3.32-.52zm-6.32.96l-2.6 1.36-2.06 2.06-1.35 2.6-.5 3 .5 3 1.34 2.6L31 458.4l2.6 1.33 3 .5 3-.5 2.6-1.34 2.06-2.07 1.35-2.6.5-3-.5-3-1.34-2.6-2.05-2.07-2.6-1.35-3-.47z" stroke="#3a414a" stroke-width=".05" fill="#3a414a"/><path fill="#fff"/><path d="M-280 730h-20v-1h20z" stroke="#3a414a" stroke-width=".05" fill="#3a414a"/><path fill="#fff"/><path d="M-289.5 739.5h-1v-20h1z" stroke="#3a414a" stroke-width=".05" fill="#3a414a"/><path fill="#fff"/><path d="M-280 720h-20v-1h20z" stroke="#3a414a" stroke-width=".05" fill="#3a414a"/><use xlink:href="#p" transform="matrix(1,0,0,1,-123.30246913580248,623.366404199475) translate(0 17.77777777777778)"/><path d="M-142.65 400.77h-36.85v-1h36.85zm122.65 0h-17.35v-1H-20z" stroke="#3a414a" stroke-width=".05" fill="#3a414a"/><path d="M19.28 410.27l-20-10 20-10" fill="#fff" fill-opacity="0"/><path d="M19.5 390.7L.4 400.28l19.1 9.55-.45.9-20.9-10.45 20.9-10.45z" stroke="#3a414a" stroke-width=".05" fill="#3a414a"/><path fill="#fff"/><path d="M19.28 400.77h-20v-1h20z" stroke="#3a414a" stroke-width=".05" fill="#3a414a"/><path d="M-.72 400.27l-.5 3.16-1.43 2.74-2.17 2.17-2.74 1.42-3.16.5-3.16-.5-2.75-1.42-2.16-2.17-1.4-2.74-.52-3.16.5-3.16 1.43-2.74 2.17-2.16 2.75-1.42 3.16-.5 2.6.33 2.4 1 2.07 1.6 1.6 2.07 1 2.4.33 2.6" fill="#fff"/><path d="M-8 390.12l2.52 1.04 2.18 1.68 1.68 2.18 1.04 2.52.35 2.66-.5.07.5.08-.52 3.24-1.5 2.87-2.27 2.28-2.88 1.5-3.32.52-3.32-.53-2.9-1.5-2.26-2.27-1.5-2.88-.53-3.33.54-3.32 1.5-2.9 2.27-2.26 2.9-1.5 3.3-.54zm-5.73 1.14l-2.6 1.34-2.06 2.06-1.33 2.6-.5 3 .5 3 1.34 2.6 2.07 2.07 2.6 1.35 3 .48 3-.48 2.6-1.35 2.07-2.06 1.35-2.6.47-3-.32-2.47-.94-2.27-1.5-1.98-1.98-1.5-2.28-.96-2.46-.33z" stroke="#3a414a" stroke-width=".05" fill="#3a414a"/><path fill="#fff"/><path d="M-189 410.27h-1v-20h1z" stroke="#3a414a" stroke-width=".05" fill="#3a414a"/><path fill="#fff"/><path d="M-179.5 400.77h-20v-1h20z" stroke="#3a414a" stroke-width=".05" fill="#3a414a"/><path fill="#fff"/><path d="M-179 410.27h-1v-20h1z" stroke="#3a414a" stroke-width=".05" fill="#3a414a"/><use xlink:href="#q" transform="matrix(1,0,0,1,-142.65432098765433,386.9333333333334) translate(0 17.77777777777778)"/><path d="M-102.7 320.37l2.33 2.34.87 3.23v28l.77 2.84 1.96 1.96 2.84.77H-.5v1h-93.57l-3.22-.87-2.33-2.34-.87-3.23v-28l-.77-2.84-1.96-1.96-2.84-.77h-96.38v-1h96.52zm-316.8.13v-1h83.97v1z" stroke="#3a414a" stroke-width=".05" fill="#3a414a"/><path fill="#fff"/><path d="M-429 330h-1v-20h1z" stroke="#3a414a" stroke-width=".05" fill="#3a414a"/><path fill="#fff"/><path d="M-419.5 320.5h-20v-1h20z" stroke="#3a414a" stroke-width=".05" fill="#3a414a"/><path fill="#fff"/><path d="M-419 330h-1v-20h1z" stroke="#3a414a" stroke-width=".05" fill="#3a414a"/><path d="M19.28 370l-20-10 20-10" fill="#fff" fill-opacity="0"/><path d="M19.5 350.45L.4 360l19.1 9.55-.45.9L-1.85 360l20.9-10.45z" stroke="#3a414a" stroke-width=".05" fill="#3a414a"/><path fill="#fff"/><path d="M19.28 360.5h-20v-1h20z" stroke="#3a414a" stroke-width=".05" fill="#3a414a"/><path fill="#fff"/><path d="M-.22 370h-1v-20h1z" stroke="#3a414a" stroke-width=".05" fill="#3a414a"/><g><use xlink:href="#r" transform="matrix(1,0,0,1,-335.534980216044,306.6666666666667) translate(0 17.77777777777778)"/></g><defs><path fill="#333" d="M240-154L185 4h-14l-41-109L90 4H77L20-153c-7-3-23 1-20-12h79v8l-27 4L91-41l40-108h14l40 109 38-113-28-4v-8h63v8" id="s"/><path fill="#333" d="M90-170c52 0 76 32 76 87 0 54-24 87-77 87-51 0-75-34-75-87 0-54 24-87 76-87zM89-10c39 0 46-35 46-73 0-39-7-73-46-73-39 1-44 34-44 73s6 72 44 73" id="t"/><path fill="#333" d="M57-145c16-10 35-24 60-25v45c-19 1-8-30-40-17l-20 6v124l29 4v8H7v-8l21-4v-141c-8-3-24 2-21-12h48" id="u"/><path fill="#333" d="M60-80l68-73c-7-3-20 0-17-12h58c3 13-13 9-20 12l-47 48 60 93c7 3 21-1 18 12h-68c-3-12 9-9 15-12L82-83 60-60v48c7 3 21-1 18 12H10v-8l21-4v-226l-24-4v-8h53v170" id="v"/><path fill="#333" d="M-3 46V28h186v18H-3" id="w"/><path fill="#333" d="M54-38c-1 25 24 26 44 20v12C71 10 25 9 25-35v-115H4c-2-14 14-10 21-15l18-38h11v38h38v15H54v112" id="x"/><path fill="#333" d="M161-154L85 37C75 66 49 86 8 75V39c18-2 6 24 29 21 30-4 38-32 47-58L21-153c-7-3-20 0-17-12h77v8l-26 4 45 116 43-116-26-4v-8h62v8" id="y"/><path fill="#333" d="M166-85c3 67-44 102-111 85l1 64 29 4v9H6v-9l21-4v-217c-7-3-22 1-19-12h46l1 9c11-8 26-14 45-14 47 2 64 36 66 85zM56-13c53 14 83-14 78-72 7-53-33-79-78-60v132" id="z"/><path fill="#333" d="M84-170c49 0 66 33 63 87H46c-8 60 38 80 95 63v10C128-2 108 4 88 4 34 4 14-29 14-84c-1-54 22-86 70-86zm33 73c12-57-57-82-69-24-1 7-2 15-2 24h71" id="A"/><g id="a"><use transform="matrix(0.06172839506172839,0,0,0.06172839506172839,0,0)" xlink:href="#s"/><use transform="matrix(0.06172839506172839,0,0,0.06172839506172839,15.987654320987653,0)" xlink:href="#t"/><use transform="matrix(0.06172839506172839,0,0,0.06172839506172839,27.098765432098766,0)" xlink:href="#u"/><use transform="matrix(0.06172839506172839,0,0,0.06172839506172839,34.44444444444444,0)" xlink:href="#v"/><use transform="matrix(0.06172839506172839,0,0,0.06172839506172839,45.55555555555556,0)" xlink:href="#w"/><use transform="matrix(0.06172839506172839,0,0,0.06172839506172839,56.66666666666667,0)" xlink:href="#x"/><use transform="matrix(0.06172839506172839,0,0,0.06172839506172839,62.83950617283951,0)" xlink:href="#y"/><use transform="matrix(0.06172839506172839,0,0,0.06172839506172839,73.95061728395062,0)" xlink:href="#z"/><use transform="matrix(0.06172839506172839,0,0,0.06172839506172839,85.06172839506173,0)" xlink:href="#A"/></g><path fill="#333" d="M143-16l36-204h-65C99-142 71-72 35-16h108zM13 0l-30 73h-11l11-84 28-3c40-55 70-126 84-208l-29-4 2-10h177l-1 10-31 4-37 208 31 3-18 84h-11l-4-73H13" id="B"/><path fill="#333" d="M85-151C37-113 66 5-9 2c-14-1-3-18-2-28C3-30 2-3 14-20c36-49 18-177 130-145L119-12l19 4-1 8H87l27-153c-7-4-23-3-29 2" id="C"/><path fill="#333" d="M54 4C18 7 16-31 22-63l16-90-20-4 2-8h49L47-34c4 35 53 9 61-6 4-5 7-9 10-14l20-111h29L140-12l21 4-2 8h-48l4-34C101-15 84 2 54 4" id="D"/><path fill="#333" d="M121-170c21-1 33 15 32 39 14-18 29-37 57-39 32-2 32 39 27 68l-15 90 23 4-2 8h-53l23-131c-12-37-53-2-60 19-11 34-14 75-22 112h-29l23-131c-12-38-56-2-62 19C52-77 49-37 42 0H13l27-153-21-4 2-8h48l-4 34c13-18 28-38 56-39" id="E"/><path fill="#333" d="M78-15c22 0 39-8 53-17l5 7C120-11 99 4 70 4 31 4 12-20 11-58c-2-82 68-132 145-102l-8 46h-10c1-26-4-45-32-42-45 4-64 47-64 96 0 26 8 46 36 45" id="F"/><path fill="#333" d="M55-116c1 27 24 33 54 31l11-65c-30-8-67-1-65 34zm-31-1c0-58 73-55 128-47L126-12l23 4-1 8H95l11-71H80L29 0h-40c0-10 9-10 17-12l47-64c-16-6-29-19-29-41" id="G"/><g id="b"><use transform="matrix(0.06172839506172839,0,0,0.06172839506172839,0,0)" xlink:href="#B"/><use transform="matrix(0.06172839506172839,0,0,0.06172839506172839,14.135802469135802,0)" xlink:href="#C"/><use transform="matrix(0.06172839506172839,0,0,0.06172839506172839,23.76543209876543,0)" xlink:href="#D"/><use transform="matrix(0.06172839506172839,0,0,0.06172839506172839,34.876543209876544,0)" xlink:href="#E"/><use transform="matrix(0.06172839506172839,0,0,0.06172839506172839,50.864197530864196,0)" xlink:href="#F"/><use transform="matrix(0.06172839506172839,0,0,0.06172839506172839,60.67901234567901,0)" xlink:href="#G"/></g><path fill="#333" d="M-4 0l2-9 30-5 37-208-29-4 1-10h95l-2 10-31 4L70-55l138-156 2-11-29-4 1-10h95l-2 10-31 4-37 208 30 5-2 9h-94l1-9 31-5 30-171L65-26l-3 12 30 5-2 9H-4" id="H"/><path fill="#333" d="M72-140C54-86 58 21-10-2c5-8-1-26 14-24 8 20 20 5 25-9 12-33 22-80 33-118l-25-4 2-8h55l17 130 76-130h34L195-12l19 4-1 8h-49l24-140L105 4H92" id="I"/><path fill="#333" d="M43-73c-15 62 59 70 91 41l5 7C122-11 100 4 70 4 31 4 11-19 11-58c0-67 42-123 113-109 16 3 26 15 28 33-8 46-58 56-109 61zm78-61c0-37-45-19-57 1-8 14-15 33-20 49 39-4 77-13 77-50" id="J"/><g id="c"><use transform="matrix(0.06172839506172839,0,0,0.06172839506172839,0,0)" xlink:href="#H"/><use transform="matrix(0.06172839506172839,0,0,0.06172839506172839,15.987654320987653,0)" xlink:href="#I"/><use transform="matrix(0.06172839506172839,0,0,0.06172839506172839,30.123456790123456,0)" xlink:href="#J"/><use transform="matrix(0.06172839506172839,0,0,0.06172839506172839,39.93827160493827,0)" xlink:href="#J"/><use transform="matrix(0.06172839506172839,0,0,0.06172839506172839,49.44444444444445,0)" xlink:href="#E"/></g><path fill="#333" d="M175-184c0-38-38-37-76-36l-16 87c51 2 92 0 92-51zm-2 113c0-47-45-47-93-46L63-16c56 3 110 5 110-55zm37-1C212 20 96-1 3 0l2-9 23-5 37-208-29-4 1-10c70 5 175-20 175 50 0 39-26 55-59 61 34 3 56 17 57 53" id="K"/><path fill="#333" d="M231-165L205-12l23 4-1 8h-53l27-165h30zM153-55c0 65-83 66-140 51l26-149-23-4 1-8h54L59-98c45-6 94-1 94 43zm-30 3c0-35-35-40-67-33L44-16c33 12 79 5 79-36" id="L"/><path fill="#333" d="M65-132c14-36 103-60 96 5-4 40-13 77-19 115l23 4-1 8h-53l22-131c-12-41-64 1-72 20L42 0H13l27-153c-7-4-24 0-20-12h49" id="M"/><path fill="#333" d="M103-156c-44 0-59 47-61 96 0 29 9 49 35 49 45 0 62-48 62-96 0-29-11-49-36-49zm66 56C168-39 135 4 75 4 34 4 10-23 11-66c1-61 34-104 94-104 41 0 65 27 64 70" id="N"/><path fill="#333" d="M165-165L140-12l19 4-1 8h-50l12-76H55L41 0H12l27-153-20-4 2-8h50L57-91h66l12-74h30" id="O"/><g id="d"><use transform="matrix(0.06172839506172839,0,0,0.06172839506172839,0,0)" xlink:href="#K"/><use transform="matrix(0.06172839506172839,0,0,0.06172839506172839,13.518518518518517,0)" xlink:href="#L"/><use transform="matrix(0.06172839506172839,0,0,0.06172839506172839,28.51851851851852,0)" xlink:href="#M"/><use transform="matrix(0.06172839506172839,0,0,0.06172839506172839,39.62962962962963,0)" xlink:href="#N"/><use transform="matrix(0.06172839506172839,0,0,0.06172839506172839,50.18518518518519,0)" xlink:href="#C"/><use transform="matrix(0.06172839506172839,0,0,0.06172839506172839,59.814814814814824,0)" xlink:href="#O"/><use transform="matrix(0.06172839506172839,0,0,0.06172839506172839,70.80246913580248,0)" xlink:href="#G"/><use transform="matrix(0.06172839506172839,0,0,0.06172839506172839,81.11111111111113,0)" xlink:href="#J"/><use transform="matrix(0.06172839506172839,0,0,0.06172839506172839,90.61728395061729,0)" xlink:href="#E"/><use transform="matrix(0.06172839506172839,0,0,0.06172839506172839,106.60493827160495,0)" xlink:href="#F"/><use transform="matrix(0.06172839506172839,0,0,0.06172839506172839,116.41975308641976,0)" xlink:href="#G"/></g><path fill="#333" d="M109-169c21-2 37 13 48 1h9L139-12l20 4-2 8h-50l5-27C96-11 82 4 58 4 25 4 10-20 11-55c2-65 34-107 98-114zM42-60c0 51 54 48 72 17l20-104c-53-30-92 31-92 87" id="P"/><g id="e"><use transform="matrix(0.06172839506172839,0,0,0.06172839506172839,0,0)" xlink:href="#O"/><use transform="matrix(0.06172839506172839,0,0,0.06172839506172839,10.987654320987653,0)" xlink:href="#P"/></g><path fill="#333" d="M164-154L98 4H85L17-153c-7-3-20 0-17-12h77v8l-26 4L99-38l46-115-26-4v-8h61v8" id="Q"/><path fill="#333" d="M126-119c3-38-42-31-69-25v132l23 4v8H7v-8l21-4v-226l-24-4v-8h53l-1 98c31-22 99-31 99 31v109c7 3 23-1 20 12h-71v-8l22-4v-107" id="R"/><path fill="#333" d="M47-200c-23 0-25-39 0-38 13 0 18 7 20 19-1 11-8 19-20 19zM65-12l28 4v8H8v-8l28-4v-141l-24-4v-8h53v153" id="S"/><path fill="#333" d="M45-84c0 64 52 80 104 63 1 25-30 25-55 25-56 0-80-32-80-88 0-76 62-98 131-80v46h-10c-5-15-4-31-23-35-47-10-67 21-67 69" id="T"/><path fill="#333" d="M65-12l28 4v8H7v-8l28-4v-226l-28-4v-8h58v238" id="U"/><g id="f"><use transform="matrix(0.06172839506172839,0,0,0.06172839506172839,0,0)" xlink:href="#Q"/><use transform="matrix(0.06172839506172839,0,0,0.06172839506172839,11.11111111111111,0)" xlink:href="#A"/><use transform="matrix(0.06172839506172839,0,0,0.06172839506172839,20.925925925925924,0)" xlink:href="#R"/><use transform="matrix(0.06172839506172839,0,0,0.06172839506172839,32.03703703703704,0)" xlink:href="#S"/><use transform="matrix(0.06172839506172839,0,0,0.06172839506172839,38.20987654320988,0)" xlink:href="#T"/><use transform="matrix(0.06172839506172839,0,0,0.06172839506172839,48.0246913580247,0)" xlink:href="#U"/><use transform="matrix(0.06172839506172839,0,0,0.06172839506172839,54.19753086419754,0)" xlink:href="#A"/></g><path fill="#333" d="M41-130c7 48 86 23 86 84 0 56-69 57-112 41v-40c20 0 9 29 31 31 35 19 77-26 41-50-27-18-72-13-72-59 0-50 58-52 100-41v36c-19 1-8-25-28-25-21-7-50-1-46 23" id="V"/><path fill="#333" d="M32-163c41-10 102-14 102 39v112c8 3 24-2 21 12h-45l-4-17C83 13 3 13 13-46c-2-50 45-50 92-51 4-36-5-70-42-56-6 2-12 4-16 6-4 7 0 23-15 20v-36zM42-47c0 41 41 33 63 22v-59c-34 1-63-1-63 37" id="W"/><path fill="#333" d="M10 0v-8l90-143c-23 2-54-4-70 6-5 8 1 26-14 24v-44h122v8L47-14c29-2 65 3 86-8l9-35h8l-5 57H10" id="X"/><path fill="#333" d="M125-118c4-37-41-34-68-26v132l23 4v8H8C5-13 21-9 28-12v-141c-7-3-23 1-20-12h47l2 13c31-23 98-29 98 31v109c7 3 23-1 20 12h-72v-8l22-4v-106" id="Y"/><g id="g"><use transform="matrix(0.06172839506172839,0,0,0.06172839506172839,0,0)" xlink:href="#V"/><use transform="matrix(0.06172839506172839,0,0,0.06172839506172839,8.641975308641975,0)" xlink:href="#z"/><use transform="matrix(0.06172839506172839,0,0,0.06172839506172839,19.753086419753085,0)" xlink:href="#A"/><use transform="matrix(0.06172839506172839,0,0,0.06172839506172839,29.5679012345679,0)" xlink:href="#T"/><use transform="matrix(0.06172839506172839,0,0,0.06172839506172839,39.382716049382715,0)" xlink:href="#S"/><use transform="matrix(0.06172839506172839,0,0,0.06172839506172839,45.55555555555556,0)" xlink:href="#W"/><use transform="matrix(0.06172839506172839,0,0,0.06172839506172839,55.370370370370374,0)" xlink:href="#U"/><use transform="matrix(0.06172839506172839,0,0,0.06172839506172839,61.543209876543216,0)" xlink:href="#S"/><use transform="matrix(0.06172839506172839,0,0,0.06172839506172839,67.71604938271605,0)" xlink:href="#X"/><use transform="matrix(0.06172839506172839,0,0,0.06172839506172839,77.53086419753086,0)" xlink:href="#W"/><use transform="matrix(0.06172839506172839,0,0,0.06172839506172839,87.34567901234567,0)" xlink:href="#x"/><use transform="matrix(0.06172839506172839,0,0,0.06172839506172839,93.5185185185185,0)" xlink:href="#S"/><use transform="matrix(0.06172839506172839,0,0,0.06172839506172839,99.69135802469134,0)" xlink:href="#t"/><use transform="matrix(0.06172839506172839,0,0,0.06172839506172839,110.80246913580245,0)" xlink:href="#Y"/></g><path fill="#333" d="M126-118c4-37-42-32-68-25v131l24 4v8H8C5-13 21-9 28-12v-141c-7-3-23 1-20-12h48l1 13c22-15 77-30 92 2 32-22 104-36 104 29v109c8 3 24-2 21 12h-75v-8l25-4v-106c3-39-45-31-72-24 7 37 1 88 3 130l25 4v8h-78v-8l24-4v-106" id="Z"/><g id="h"><use transform="matrix(0.061728395061728385,0,0,0.061728395061728385,0,0)" xlink:href="#Z"/><use transform="matrix(0.061728395061728385,0,0,0.061728395061728385,17.28395061728395,0)" xlink:href="#W"/><use transform="matrix(0.061728395061728385,0,0,0.061728395061728385,27.098765432098762,0)" xlink:href="#V"/><use transform="matrix(0.061728395061728385,0,0,0.061728395061728385,35.74074074074073,0)" xlink:href="#x"/><use transform="matrix(0.061728395061728385,0,0,0.061728395061728385,41.91358024691357,0)" xlink:href="#A"/><use transform="matrix(0.061728395061728385,0,0,0.061728395061728385,51.72839506172838,0)" xlink:href="#u"/></g><g id="i"><use transform="matrix(0.06172839506172839,0,0,0.06172839506172839,0,0)" xlink:href="#V"/><use transform="matrix(0.06172839506172839,0,0,0.06172839506172839,8.641975308641975,0)" xlink:href="#A"/><use transform="matrix(0.06172839506172839,0,0,0.06172839506172839,18.45679012345679,0)" xlink:href="#u"/><use transform="matrix(0.06172839506172839,0,0,0.06172839506172839,25.80246913580247,0)" xlink:href="#Q"/><use transform="matrix(0.06172839506172839,0,0,0.06172839506172839,36.91358024691358,0)" xlink:href="#S"/><use transform="matrix(0.06172839506172839,0,0,0.06172839506172839,43.086419753086425,0)" xlink:href="#T"/><use transform="matrix(0.06172839506172839,0,0,0.06172839506172839,52.90123456790124,0)" xlink:href="#A"/><use transform="matrix(0.06172839506172839,0,0,0.06172839506172839,62.71604938271606,0)" xlink:href="#w"/><use transform="matrix(0.06172839506172839,0,0,0.06172839506172839,73.82716049382717,0)" xlink:href="#V"/><use transform="matrix(0.06172839506172839,0,0,0.06172839506172839,82.46913580246914,0)" xlink:href="#x"/><use transform="matrix(0.06172839506172839,0,0,0.06172839506172839,88.64197530864197,0)" xlink:href="#W"/><use transform="matrix(0.06172839506172839,0,0,0.06172839506172839,98.45679012345678,0)" xlink:href="#x"/><use transform="matrix(0.06172839506172839,0,0,0.06172839506172839,104.62962962962962,0)" xlink:href="#S"/><use transform="matrix(0.06172839506172839,0,0,0.06172839506172839,110.80246913580245,0)" xlink:href="#t"/><use transform="matrix(0.06172839506172839,0,0,0.06172839506172839,121.91358024691357,0)" xlink:href="#Y"/></g><path fill="#333" d="M176-171c0-44-31-52-77-49L79-108c57 3 97-8 97-63zm35-2c-1 69-59 85-135 81L62-14l39 5-2 9H-2l2-9 28-5 37-208-29-4 1-10c77 2 175-16 174 63" id="aa"/><path fill="#333" d="M103-156c-42 7-56 47-57 96-1 29 9 49 33 49 43 0 56-49 58-96 1-28-10-47-34-49zM77 4c-88 0-64-147-34-196 22-37 63-50 116-54 14-1 17-13 32-12-8 72-133 11-143 100-2 10-4 13-4 24 12-20 32-36 62-36 41 0 62 28 62 70C168-40 136 4 77 4" id="ab"/><g id="j"><use transform="matrix(0.06172839506172839,0,0,0.06172839506172839,0,0)" xlink:href="#aa"/><use transform="matrix(0.06172839506172839,0,0,0.06172839506172839,12.65432098765432,0)" xlink:href="#P"/><use transform="matrix(0.06172839506172839,0,0,0.06172839506172839,23.76543209876543,0)" xlink:href="#ab"/><use transform="matrix(0.06172839506172839,0,0,0.06172839506172839,34.629629629629626,0)" xlink:href="#N"/><use transform="matrix(0.06172839506172839,0,0,0.06172839506172839,45.74074074074073,0)" xlink:href="#E"/><use transform="matrix(0.06172839506172839,0,0,0.06172839506172839,61.975308641975296,0)" xlink:href="#P"/><use transform="matrix(0.06172839506172839,0,0,0.06172839506172839,73.0864197530864,0)" xlink:href="#J"/><use transform="matrix(0.06172839506172839,0,0,0.06172839506172839,82.59259259259257,0)" xlink:href="#E"/></g><g id="k"><use transform="matrix(0.06172839506172839,0,0,0.06172839506172839,0,0)" xlink:href="#O"/><use transform="matrix(0.06172839506172839,0,0,0.06172839506172839,10.987654320987653,0)" xlink:href="#P"/></g><path fill="#333" d="M13-82c-2-68 46-101 114-84 8-3 15-8 28-7V64l18 4v9h-70v-9l23-4c1-25-2-53 2-75-11 8-27 15-47 15-49-1-66-35-68-86zm113-70c-53-13-86 12-81 70-6 54 34 80 81 61v-131" id="ac"/><path fill="#333" d="M124-13C89 8 26 15 26-45v-108c-8-3-24 2-21-12h50v118c-3 37 42 32 69 25v-131l-25-4v-8h54v153c8 3 24-2 21 12h-48" id="ad"/><g id="l"><use transform="matrix(0.06172839506172839,0,0,0.06172839506172839,0,0)" xlink:href="#u"/><use transform="matrix(0.06172839506172839,0,0,0.06172839506172839,7.345679012345679,0)" xlink:href="#A"/><use transform="matrix(0.06172839506172839,0,0,0.06172839506172839,17.160493827160494,0)" xlink:href="#ac"/><use transform="matrix(0.06172839506172839,0,0,0.06172839506172839,28.271604938271604,0)" xlink:href="#ad"/><use transform="matrix(0.06172839506172839,0,0,0.06172839506172839,39.382716049382715,0)" xlink:href="#A"/><use transform="matrix(0.06172839506172839,0,0,0.06172839506172839,49.19753086419753,0)" xlink:href="#V"/><use transform="matrix(0.06172839506172839,0,0,0.06172839506172839,57.839506172839506,0)" xlink:href="#x"/></g><path fill="#333" d="M13-81c0-71 46-101 114-85l-1-72-28-4v-8h57v238c8 3 24-2 21 12h-47l-2-12C80 23 13-1 13-81zm77-74c-37 1-44 33-45 74 0 38 9 66 45 66 14 0 27-3 36-7v-130c-10-1-24-3-36-3" id="ae"/><g id="m"><use transform="matrix(0.06172839506172839,0,0,0.06172839506172839,0,0)" xlink:href="#ae"/><use transform="matrix(0.06172839506172839,0,0,0.06172839506172839,11.11111111111111,0)" xlink:href="#ad"/><use transform="matrix(0.06172839506172839,0,0,0.06172839506172839,22.22222222222222,0)" xlink:href="#u"/><use transform="matrix(0.06172839506172839,0,0,0.06172839506172839,29.5679012345679,0)" xlink:href="#W"/><use transform="matrix(0.06172839506172839,0,0,0.06172839506172839,39.382716049382715,0)" xlink:href="#x"/><use transform="matrix(0.06172839506172839,0,0,0.06172839506172839,45.55555555555556,0)" xlink:href="#S"/><use transform="matrix(0.06172839506172839,0,0,0.06172839506172839,51.7283950617284,0)" xlink:href="#t"/><use transform="matrix(0.06172839506172839,0,0,0.06172839506172839,62.839506172839506,0)" xlink:href="#Y"/></g><g id="n"><use transform="matrix(0.06172839506172839,0,0,0.06172839506172839,0,0)" xlink:href="#u"/><use transform="matrix(0.06172839506172839,0,0,0.06172839506172839,7.345679012345679,0)" xlink:href="#A"/><use transform="matrix(0.06172839506172839,0,0,0.06172839506172839,17.160493827160494,0)" xlink:href="#ac"/><use transform="matrix(0.06172839506172839,0,0,0.06172839506172839,28.271604938271604,0)" xlink:href="#ad"/><use transform="matrix(0.06172839506172839,0,0,0.06172839506172839,39.382716049382715,0)" xlink:href="#A"/><use transform="matrix(0.06172839506172839,0,0,0.06172839506172839,49.19753086419753,0)" xlink:href="#V"/><use transform="matrix(0.06172839506172839,0,0,0.06172839506172839,57.839506172839506,0)" xlink:href="#x"/><use transform="matrix(0.06172839506172839,0,0,0.06172839506172839,64.01234567901234,0)" xlink:href="#w"/><use transform="matrix(0.06172839506172839,0,0,0.06172839506172839,75.12345679012346,0)" xlink:href="#T"/><use transform="matrix(0.06172839506172839,0,0,0.06172839506172839,84.93827160493827,0)" xlink:href="#t"/><use transform="matrix(0.06172839506172839,0,0,0.06172839506172839,96.04938271604938,0)" xlink:href="#V"/><use transform="matrix(0.06172839506172839,0,0,0.06172839506172839,104.69135802469135,0)" xlink:href="#x"/></g><g id="o"><use transform="matrix(0.06172839506172839,0,0,0.06172839506172839,0,0)" xlink:href="#H"/><use transform="matrix(0.06172839506172839,0,0,0.06172839506172839,15.987654320987653,0)" xlink:href="#I"/><use transform="matrix(0.06172839506172839,0,0,0.06172839506172839,30.123456790123456,0)" xlink:href="#J"/><use transform="matrix(0.06172839506172839,0,0,0.06172839506172839,39.93827160493827,0)" xlink:href="#J"/><use transform="matrix(0.06172839506172839,0,0,0.06172839506172839,49.44444444444445,0)" xlink:href="#E"/></g><g id="p"><use transform="matrix(0.06172839506172839,0,0,0.06172839506172839,0,0)" xlink:href="#K"/><use transform="matrix(0.06172839506172839,0,0,0.06172839506172839,13.518518518518517,0)" xlink:href="#L"/><use transform="matrix(0.06172839506172839,0,0,0.06172839506172839,28.51851851851852,0)" xlink:href="#M"/><use transform="matrix(0.06172839506172839,0,0,0.06172839506172839,39.62962962962963,0)" xlink:href="#N"/><use transform="matrix(0.06172839506172839,0,0,0.06172839506172839,50.18518518518519,0)" xlink:href="#C"/><use transform="matrix(0.06172839506172839,0,0,0.06172839506172839,59.814814814814824,0)" xlink:href="#O"/><use transform="matrix(0.06172839506172839,0,0,0.06172839506172839,70.80246913580248,0)" xlink:href="#G"/><use transform="matrix(0.06172839506172839,0,0,0.06172839506172839,81.11111111111113,0)" xlink:href="#J"/><use transform="matrix(0.06172839506172839,0,0,0.06172839506172839,90.61728395061729,0)" xlink:href="#E"/></g><path fill="#333" d="M55-88C49-8 143 7 196-32l13-36h11l-10 56C134 17 20 7 20-92c0-120 104-168 223-137l-7 51h-12v-30c-13-10-36-17-59-16-76 3-105 58-110 136" id="af"/><path fill="#333" d="M11-67c-4-70 74-125 129-82-5-50-28-96-86-84-7-16 7-17 23-17 67 3 93 53 93 121C170-54 145 4 75 4 33 4 13-23 11-67zm67 56c52 0 73-80 51-127-43-38-91 22-88 77 2 28 11 50 37 50" id="ag"/><path fill="#333" d="M169-111C169-36 120 15 41 0L31 64l28 4-2 9h-78l1-9 22-4 38-217c-7-3-22 0-17-12h47l-3 26c16-16 31-31 55-31 33 0 47 25 47 59zm-31 5c0-52-55-47-74-17L45-19c54 29 93-31 93-87" id="ah"/><path fill="#333" d="M71-152c-16 0-29 9-39 18l-6-7c13-13 29-28 55-29 41 0 48 40 44 81h29l13-76h28l-13 76h32c9-53 54-100 115-72l-5 35h-10c-1-16-7-32-25-30-40 5-47 53-51 99-4 48 46 50 67 25l5 7c-13 13-29 29-54 29-40 0-49-38-44-81h-32L167 0h-28l13-77h-29C114-24 68 23 7-5l6-35h10c2 16 7 33 25 30 38-6 50-53 50-100 0-23-6-42-27-42" id="ai"/><g id="q"><use transform="matrix(0.06172839506172839,0,0,0.06172839506172839,0,0)" xlink:href="#af"/><use transform="matrix(0.06172839506172839,0,0,0.06172839506172839,14.93827160493827,0)" xlink:href="#N"/><use transform="matrix(0.06172839506172839,0,0,0.06172839506172839,25.74074074074074,0)" xlink:href="#ag"/><use transform="matrix(0.06172839506172839,0,0,0.06172839506172839,37.22222222222222,0)" xlink:href="#J"/><use transform="matrix(0.06172839506172839,0,0,0.06172839506172839,47.03703703703704,0)" xlink:href="#ah"/><use transform="matrix(0.06172839506172839,0,0,0.06172839506172839,57.592592592592595,0)" xlink:href="#ai"/><use transform="matrix(0.06172839506172839,0,0,0.06172839506172839,78.20987654320987,0)" xlink:href="#D"/><use transform="matrix(0.06172839506172839,0,0,0.06172839506172839,89.32098765432099,0)" xlink:href="#E"/></g><path fill="#333" d="M118-11c68 0 98-64 98-135 0-46-20-78-65-78-70 0-98 66-98 136 0 45 21 77 65 77zm134-133C252-57 205-2 117 4 10 11-5-131 54-194c23-24 52-45 99-44 61 0 99 35 99 94" id="aj"/><path fill="#333" d="M122-165c22-2 49-2 35 26C123-72 82-1 38 57 25 74-1 83-30 75l6-36h8c-3 31 34 21 46 5C41 30 51 14 60-2L27-153l-19-4 1-8h45L80-37c17-35 45-62 52-105 2-11-14-11-10-23" id="ak"/><path fill="#333" d="M98-87c23 5 44 13 44 39 0 36-34 52-73 52S11-19 11-58c0-65 28-112 89-112 27 0 50 9 50 36s-25 39-52 47zm13 42c0-35-35-38-68-33-3 32 0 67 30 67 22-1 38-11 38-34zm8-89c0-34-47-21-56-1-9 12-15 29-18 46 40-3 74-13 74-45" id="al"/><g id="r"><use transform="matrix(0.06172839506172839,0,0,0.06172839506172839,0,0)" xlink:href="#aj"/><use transform="matrix(0.06172839506172839,0,0,0.06172839506172839,15.987654320987653,0)" xlink:href="#ab"/><use transform="matrix(0.06172839506172839,0,0,0.06172839506172839,26.851851851851848,0)" xlink:href="#F"/><use transform="matrix(0.06172839506172839,0,0,0.06172839506172839,36.666666666666664,0)" xlink:href="#C"/><use transform="matrix(0.06172839506172839,0,0,0.06172839506172839,45.98765432098766,0)" xlink:href="#ak"/><use transform="matrix(0.06172839506172839,0,0,0.06172839506172839,55.24691358024692,0)" xlink:href="#ai"/><use transform="matrix(0.06172839506172839,0,0,0.06172839506172839,75.8641975308642,0)" xlink:href="#D"/><use transform="matrix(0.06172839506172839,0,0,0.06172839506172839,86.97530864197532,0)" xlink:href="#al"/><use transform="matrix(0.06172839506172839,0,0,0.06172839506172839,96.4814814814815,0)" xlink:href="#P"/><use transform="matrix(0.06172839506172839,0,0,0.06172839506172839,107.59259259259261,0)" xlink:href="#J"/><use transform="matrix(0.06172839506172839,0,0,0.06172839506172839,117.09876543209877,0)" xlink:href="#E"/></g></defs></g></svg>