<svg xmlns="http://www.w3.org/2000/svg" xmlns:xlink="http://www.w3.org/1999/xlink" xmlns:lucid="lucid" width="1778" height="893.98"><g transform="translate(-360 -200)" lucid:page-tab-id="0_0"><path d="M0 0h2645.67v1870.87H0z" fill="#fff"/><path d="M1300 225c0-2.76 2.24-5 5-5h348c2.76 0 5 2.24 5 5v326c0 2.76-2.24 5-5 5h-348c-2.76 0-5-2.24-5-5z" fill="#fff"/><path d="M1300 225c0-2.76 2.24-5 5-5h348c2.76 0 5 2.24 5 5v326c0 2.76-2.24 5-5 5h-348c-2.76 0-5-2.24-5-5zM1300 260h358M1378.53 260v296" stroke="#333" fill="none"/><use xlink:href="#a" transform="matrix(1,0,0,1,1310,220) translate(133.80586419753087 24.488888888888887)"/><use xlink:href="#b" transform="matrix(1,0,0,1,1305,262.5) translate(20.19166666666667 20.488888888888887)"/><use xlink:href="#c" transform="matrix(1,0,0,1,1383.5333333333335,262.5) translate(0 20.488888888888887)"/><use xlink:href="#d" transform="matrix(1,0,0,1,1383.5333333333335,262.5) translate(98.94259259259258 20.488888888888887)"/><use xlink:href="#e" transform="matrix(1,0,0,1,1305,299.5) translate(1.2385802469135854 20.488888888888887)"/><use xlink:href="#f" transform="matrix(1,0,0,1,1305,299.5) translate(35.46635802469135 20.488888888888887)"/><use xlink:href="#g" transform="matrix(1,0,0,1,1383.5333333333335,299.5) translate(0 20.488888888888887)"/><use xlink:href="#h" transform="matrix(1,0,0,1,1383.5333333333335,299.5) translate(98.94259259259258 20.488888888888887)"/><use xlink:href="#e" transform="matrix(1,0,0,1,1305,336.5) translate(1.2385802469135854 20.488888888888887)"/><use xlink:href="#f" transform="matrix(1,0,0,1,1305,336.5) translate(35.46635802469135 20.488888888888887)"/><use xlink:href="#i" transform="matrix(1,0,0,1,1383.5333333333335,336.5) translate(0 20.488888888888887)"/><use xlink:href="#h" transform="matrix(1,0,0,1,1383.5333333333335,336.5) translate(108.98024691358023 20.488888888888887)"/><use xlink:href="#e" transform="matrix(1,0,0,1,1305,373.5) translate(1.2385802469135854 20.488888888888887)"/><use xlink:href="#f" transform="matrix(1,0,0,1,1305,373.5) translate(35.46635802469135 20.488888888888887)"/><use xlink:href="#j" transform="matrix(1,0,0,1,1383.5333333333335,373.5) translate(0 20.488888888888887)"/><use xlink:href="#h" transform="matrix(1,0,0,1,1383.5333333333335,373.5) translate(130.11543209876538 20.488888888888887)"/><use xlink:href="#k" transform="matrix(1,0,0,1,1305,410.5) translate(18.352469135802473 20.488888888888887)"/><use xlink:href="#l" transform="matrix(1,0,0,1,1383.5333333333335,410.5) translate(0 20.488888888888887)"/><use xlink:href="#m" transform="matrix(1,0,0,1,1383.5333333333335,410.5) translate(56.6722222222222 20.488888888888887)"/><use xlink:href="#e" transform="matrix(1,0,0,1,1305,447.5) translate(1.2385802469135854 20.488888888888887)"/><use xlink:href="#f" transform="matrix(1,0,0,1,1305,447.5) translate(35.46635802469135 20.488888888888887)"/><use xlink:href="#n" transform="matrix(1,0,0,1,1383.5333333333335,447.5) translate(0 20.488888888888887)"/><use xlink:href="#h" transform="matrix(1,0,0,1,1383.5333333333335,447.5) translate(93.95493827160493 20.488888888888887)"/><use xlink:href="#e" transform="matrix(1,0,0,1,1305,484.5) translate(1.2385802469135854 20.488888888888887)"/><use xlink:href="#f" transform="matrix(1,0,0,1,1305,484.5) translate(35.46635802469135 20.488888888888887)"/><use xlink:href="#o" transform="matrix(1,0,0,1,1383.5333333333335,484.5) translate(0 20.488888888888887)"/><use xlink:href="#h" transform="matrix(1,0,0,1,1383.5333333333335,484.5) translate(168.64506172839506 20.488888888888887)"/><use xlink:href="#e" transform="matrix(1,0,0,1,1305,521.5) translate(1.2385802469135854 20.488888888888887)"/><use xlink:href="#f" transform="matrix(1,0,0,1,1305,521.5) translate(35.46635802469135 20.488888888888887)"/><use xlink:href="#p" transform="matrix(1,0,0,1,1383.5333333333335,521.5) translate(0 20.488888888888887)"/><use xlink:href="#h" transform="matrix(1,0,0,1,1383.5333333333335,521.5) translate(70.38827160493825 20.488888888888887)"/><path d="M780 385c0-2.76 2.24-5 5-5h348c2.76 0 5 2.24 5 5v141c0 2.76-2.24 5-5 5H785c-2.76 0-5-2.24-5-5z" fill="#fff"/><path d="M780 385c0-2.76 2.24-5 5-5h348c2.76 0 5 2.24 5 5v141c0 2.76-2.24 5-5 5H785c-2.76 0-5-2.24-5-5zM780 420h358M858.53 420v111" stroke="#333" fill="none"/><use xlink:href="#q" transform="matrix(1,0,0,1,790,380) translate(118.00123456790124 24.488888888888887)"/><use xlink:href="#b" transform="matrix(1,0,0,1,785,422.5) translate(20.19166666666667 20.488888888888887)"/><use xlink:href="#j" transform="matrix(1,0,0,1,863.5333333333334,422.5) translate(0 20.488888888888887)"/><use xlink:href="#d" transform="matrix(1,0,0,1,863.5333333333334,422.5) translate(130.11543209876538 20.488888888888887)"/><use xlink:href="#k" transform="matrix(1,0,0,1,785,459.5) translate(18.352469135802473 20.488888888888887)"/><use xlink:href="#r" transform="matrix(1,0,0,1,863.5333333333334,459.5) translate(0 20.488888888888887)"/><use xlink:href="#s" transform="matrix(1,0,0,1,785,496.5) translate(1.2385802469135854 20.488888888888887)"/><use xlink:href="#t" transform="matrix(1,0,0,1,785,496.5) translate(35.46635802469135 20.488888888888887)"/><use xlink:href="#u" transform="matrix(1,0,0,1,863.5333333333334,496.5) translate(0 20.488888888888887)"/><use xlink:href="#v" transform="matrix(1,0,0,1,863.5333333333334,496.5) translate(157.42283950617283 20.488888888888887)"/><path d="M1760 299c0-2.76 2.24-5 5-5h348c2.76 0 5 2.24 5 5v141c0 2.76-2.24 5-5 5h-348c-2.76 0-5-2.24-5-5z" fill="#fff"/><path d="M1760 299c0-2.76 2.24-5 5-5h348c2.76 0 5 2.24 5 5v141c0 2.76-2.24 5-5 5h-348c-2.76 0-5-2.24-5-5zM1760 334h358M1841.87 334v111" stroke="#333" fill="none"/><use xlink:href="#w" transform="matrix(1,0,0,1,1770,294) translate(127.29074074074074 24.488888888888887)"/><use xlink:href="#b" transform="matrix(1,0,0,1,1765,336.5) translate(21.69166666666667 20.488888888888887)"/><use xlink:href="#i" transform="matrix(1,0,0,1,1846.8666666666668,336.5) translate(0 20.488888888888887)"/><use xlink:href="#d" transform="matrix(1,0,0,1,1846.8666666666668,336.5) translate(108.98024691358023 20.488888888888887)"/><use xlink:href="#x" transform="matrix(1,0,0,1,1765,373.5) translate(19.852469135802473 20.488888888888887)"/><use xlink:href="#y" transform="matrix(1,0,0,1,1846.8666666666668,373.5) translate(0 20.488888888888887)"/><use xlink:href="#z" transform="matrix(1,0,0,1,1846.8666666666668,373.5) translate(118.7685185185185 20.488888888888887)"/><use xlink:href="#x" transform="matrix(1,0,0,1,1765,410.5) translate(19.852469135802473 20.488888888888887)"/><use xlink:href="#A" transform="matrix(1,0,0,1,1846.8666666666668,410.5) translate(0 20.488888888888887)"/><use xlink:href="#z" transform="matrix(1,0,0,1,1846.8666666666668,410.5) translate(154.9913580246913 20.488888888888887)"/><path d="M780 656.5c0-2.77 2.24-5 5-5h348c2.76 0 5 2.23 5 5v104c0 2.75-2.24 5-5 5H785c-2.76 0-5-2.25-5-5z" fill="#fff"/><path d="M780 656.5c0-2.77 2.24-5 5-5h348c2.76 0 5 2.23 5 5v104c0 2.75-2.24 5-5 5H785c-2.76 0-5-2.25-5-5zM780 691.5h358M860.53 691.5v74" stroke="#333" fill="none"/><use xlink:href="#B" transform="matrix(1,0,0,1,790,651.4918609451922) translate(104.2851851851852 24.488888888888887)"/><use xlink:href="#b" transform="matrix(1,0,0,1,785,693.9918609451922) translate(21.19166666666667 20.488888888888887)"/><use xlink:href="#C" transform="matrix(1,0,0,1,865.5333333333335,693.9918609451922) translate(0 20.488888888888887)"/><use xlink:href="#d" transform="matrix(1,0,0,1,865.5333333333335,693.9918609451922) translate(157.42283950617283 20.488888888888887)"/><use xlink:href="#D" transform="matrix(1,0,0,1,785,730.9918609451922) translate(0 20.488888888888887)"/><use xlink:href="#f" transform="matrix(1,0,0,1,785,730.9918609451922) translate(37.90617283950616 20.488888888888887)"/><use xlink:href="#E" transform="matrix(1,0,0,1,865.5333333333335,730.9918609451922) translate(0 20.488888888888887)"/><use xlink:href="#F" transform="matrix(1,0,0,1,865.5333333333335,730.9918609451922) translate(128.74382716049382 20.488888888888887)"/><path d="M1300 964.98c0-2.76 2.24-5 5-5h348c2.76 0 5 2.24 5 5v104c0 2.77-2.24 5-5 5h-348c-2.76 0-5-2.23-5-5z" fill="#fff"/><path d="M1300 964.98c0-2.76 2.24-5 5-5h348c2.76 0 5 2.24 5 5v104c0 2.77-2.24 5-5 5h-348c-2.76 0-5-2.23-5-5zM1300 999.98h358M1380.27 999.98v74" stroke="#333" fill="none"/><use xlink:href="#G" transform="matrix(1,0,0,1,1310,959.9837218903845) translate(98.11296296296298 24.488888888888887)"/><use xlink:href="#b" transform="matrix(1,0,0,1,1305,1002.4837218903845) translate(21.19166666666667 20.488888888888887)"/><use xlink:href="#o" transform="matrix(1,0,0,1,1385.2666666666664,1002.4837218903845) translate(0 20.488888888888887)"/><use xlink:href="#d" transform="matrix(1,0,0,1,1385.2666666666664,1002.4837218903845) translate(168.64506172839506 20.488888888888887)"/><use xlink:href="#D" transform="matrix(1,0,0,1,1305,1039.4837218903845) translate(0.3993827160493879 20.488888888888887)"/><use xlink:href="#f" transform="matrix(1,0,0,1,1305,1039.4837218903845) translate(38.30555555555555 20.488888888888887)"/><use xlink:href="#H" transform="matrix(1,0,0,1,1385.2666666666664,1039.4837218903845) translate(0 20.488888888888887)"/><use xlink:href="#F" transform="matrix(1,0,0,1,1385.2666666666664,1039.4837218903845) translate(61.53518518518516 20.488888888888887)"/><path d="M780 890.98c0-2.76 2.24-5 5-5h348c2.76 0 5 2.24 5 5v178c0 2.77-2.24 5-5 5H785c-2.76 0-5-2.23-5-5z" fill="#fff"/><path d="M780 890.98c0-2.76 2.24-5 5-5h348c2.76 0 5 2.24 5 5v178c0 2.77-2.24 5-5 5H785c-2.76 0-5-2.23-5-5zM780 925.98h358M858.53 925.98v148" stroke="#333" fill="none"/><use xlink:href="#I" transform="matrix(1,0,0,1,790,885.9837218903845) translate(136.0814814814815 24.488888888888887)"/><use xlink:href="#b" transform="matrix(1,0,0,1,785,928.4837218903845) translate(20.19166666666667 20.488888888888887)"/><use xlink:href="#n" transform="matrix(1,0,0,1,863.5333333333334,928.4837218903845) translate(0 20.488888888888887)"/><use xlink:href="#d" transform="matrix(1,0,0,1,863.5333333333334,928.4837218903845) translate(93.95493827160493 20.488888888888887)"/><use xlink:href="#x" transform="matrix(1,0,0,1,785,965.4837218903845) translate(18.352469135802473 20.488888888888887)"/><use xlink:href="#J" transform="matrix(1,0,0,1,863.5333333333334,965.4837218903845) translate(0 20.488888888888887)"/><use xlink:href="#F" transform="matrix(1,0,0,1,863.5333333333334,965.4837218903845) translate(125.00308641975307 20.488888888888887)"/><use xlink:href="#e" transform="matrix(1,0,0,1,785,1002.4837218903845) translate(1.2385802469135854 20.488888888888887)"/><use xlink:href="#f" transform="matrix(1,0,0,1,785,1002.4837218903845) translate(35.46635802469135 20.488888888888887)"/><use xlink:href="#o" transform="matrix(1,0,0,1,863.5333333333334,1002.4837218903845) translate(0 20.488888888888887)"/><use xlink:href="#h" transform="matrix(1,0,0,1,863.5333333333334,1002.4837218903845) translate(168.64506172839506 20.488888888888887)"/><use xlink:href="#e" transform="matrix(1,0,0,1,785,1039.4837218903845) translate(1.2385802469135854 20.488888888888887)"/><use xlink:href="#f" transform="matrix(1,0,0,1,785,1039.4837218903845) translate(35.46635802469135 20.488888888888887)"/><use xlink:href="#C" transform="matrix(1,0,0,1,863.5333333333334,1039.4837218903845) translate(0 20.488888888888887)"/><use xlink:href="#h" transform="matrix(1,0,0,1,863.5333333333334,1039.4837218903845) translate(157.42283950617283 20.488888888888887)"/><path d="M1300 625c0-2.76 2.24-5 5-5h348c2.76 0 5 2.24 5 5v252c0 2.76-2.24 5-5 5h-348c-2.76 0-5-2.24-5-5z" fill="#fff"/><path d="M1300 625c0-2.76 2.24-5 5-5h348c2.76 0 5 2.24 5 5v252c0 2.76-2.24 5-5 5h-348c-2.76 0-5-2.24-5-5zM1300 660h358M1378.53 660v222" stroke="#333" fill="none"/><use xlink:href="#K" transform="matrix(1,0,0,1,1310,620) translate(109.55339506172842 24.488888888888887)"/><use xlink:href="#b" transform="matrix(1,0,0,1,1305,662.5) translate(20.19166666666667 20.488888888888887)"/><use xlink:href="#p" transform="matrix(1,0,0,1,1383.5333333333335,662.5) translate(0 20.488888888888887)"/><use xlink:href="#d" transform="matrix(1,0,0,1,1383.5333333333335,662.5) translate(70.38827160493825 20.488888888888887)"/><use xlink:href="#x" transform="matrix(1,0,0,1,1305,699.5) translate(18.352469135802473 20.488888888888887)"/><use xlink:href="#L" transform="matrix(1,0,0,1,1383.5333333333335,699.5) translate(0 20.488888888888887)"/><use xlink:href="#h" transform="matrix(1,0,0,1,1383.5333333333335,699.5) translate(93.95493827160492 20.488888888888887)"/><use xlink:href="#M" transform="matrix(1,0,0,1,1383.5333333333335,736.5) translate(0 20.488888888888887)"/><use xlink:href="#h" transform="matrix(1,0,0,1,1383.5333333333335,736.5) translate(154.86666666666665 20.488888888888887)"/><use xlink:href="#N" transform="matrix(1,0,0,1,1383.5333333333335,773.5) translate(0 20.488888888888887)"/><use xlink:href="#h" transform="matrix(1,0,0,1,1383.5333333333335,773.5) translate(168.70740740740737 20.488888888888887)"/><use xlink:href="#O" transform="matrix(1,0,0,1,1383.5333333333335,810.5) translate(0 20.488888888888887)"/><use xlink:href="#h" transform="matrix(1,0,0,1,1383.5333333333335,810.5) translate(107.67098765432097 20.488888888888887)"/><use xlink:href="#x" transform="matrix(1,0,0,1,1305,847.5) translate(18.352469135802473 20.488888888888887)"/><use xlink:href="#P" transform="matrix(1,0,0,1,1383.5333333333335,847.5) translate(0 20.488888888888887)"/><use xlink:href="#h" transform="matrix(1,0,0,1,1383.5333333333335,847.5) translate(152.55987654320984 20.488888888888887)"/><path d="M380 262c0-2.76 2.24-5 5-5h350c2.76 0 5 2.24 5 5v326c0 2.76-2.24 5-5 5H385c-2.76 0-5-2.24-5-5z" fill="#fff"/><path d="M380 262c0-2.76 2.24-5 5-5h350c2.76 0 5 2.24 5 5v326c0 2.76-2.24 5-5 5H385c-2.76 0-5-2.24-5-5zM380 297h360M461.07 297v296" stroke="#333" fill="none"/><use xlink:href="#Q" transform="matrix(1,0,0,1,390,257) translate(137.0503086419753 24.488888888888887)"/><use xlink:href="#b" transform="matrix(1,0,0,1,385,299.5) translate(21.69166666666667 20.488888888888887)"/><use xlink:href="#g" transform="matrix(1,0,0,1,466.0666666666666,299.5) translate(0 20.488888888888887)"/><use xlink:href="#d" transform="matrix(1,0,0,1,466.0666666666666,299.5) translate(98.94259259259258 20.488888888888887)"/><use xlink:href="#x" transform="matrix(1,0,0,1,385,336.5) translate(19.852469135802473 20.488888888888887)"/><use xlink:href="#R" transform="matrix(1,0,0,1,466.0666666666666,336.5) translate(0 20.488888888888887)"/><use xlink:href="#S" transform="matrix(1,0,0,1,466.0666666666666,336.5) translate(120.07777777777775 20.488888888888887)"/><use xlink:href="#D" transform="matrix(1,0,0,1,385,373.5) translate(0.8993827160493879 20.488888888888887)"/><use xlink:href="#f" transform="matrix(1,0,0,1,385,373.5) translate(38.80555555555555 20.488888888888887)"/><use xlink:href="#T" transform="matrix(1,0,0,1,466.0666666666666,373.5) translate(0 20.488888888888887)"/><use xlink:href="#U" transform="matrix(1,0,0,1,466.0666666666666,373.5) translate(112.53395061728394 20.488888888888887)"/><use xlink:href="#x" transform="matrix(1,0,0,1,385,410.5) translate(19.852469135802473 20.488888888888887)"/><use xlink:href="#V" transform="matrix(1,0,0,1,466.0666666666666,410.5) translate(0 20.488888888888887)"/><use xlink:href="#F" transform="matrix(1,0,0,1,466.0666666666666,410.5) translate(61.65987654320987 20.488888888888887)"/><use xlink:href="#x" transform="matrix(1,0,0,1,385,447.5) translate(19.852469135802473 20.488888888888887)"/><use xlink:href="#W" transform="matrix(1,0,0,1,466.0666666666666,447.5) translate(0 20.488888888888887)"/><use xlink:href="#X" transform="matrix(1,0,0,1,466.0666666666666,447.5) translate(167.1487654320987 20.488888888888887)"/><use xlink:href="#Y" transform="matrix(1,0,0,1,385,484.5) translate(17.04691358024692 20.488888888888887)"/><use xlink:href="#f" transform="matrix(1,0,0,1,385,484.5) translate(22.65802469135803 20.488888888888887)"/><use xlink:href="#Z" transform="matrix(1,0,0,1,466.0666666666666,484.5) translate(0 20.488888888888887)"/><use xlink:href="#F" transform="matrix(1,0,0,1,466.0666666666666,484.5) translate(51.622222222222206 20.488888888888887)"/><use xlink:href="#x" transform="matrix(1,0,0,1,385,521.5) translate(19.852469135802473 20.488888888888887)"/><use xlink:href="#aa" transform="matrix(1,0,0,1,466.0666666666666,521.5) translate(0 20.488888888888887)"/><use xlink:href="#ab" transform="matrix(1,0,0,1,466.0666666666666,521.5) translate(151.12592592592588 20.488888888888887)"/><use xlink:href="#x" transform="matrix(1,0,0,1,385,558.5) translate(19.852469135802473 20.488888888888887)"/><use xlink:href="#ac" transform="matrix(1,0,0,1,466.0666666666666,558.5) translate(0 20.488888888888887)"/><use xlink:href="#S" transform="matrix(1,0,0,1,466.0666666666666,558.5) translate(118.95555555555553 20.488888888888887)"/><path d="M1260 389.5h-54c-3.3 0-6 2.7-6 6v37c0 3.3-2.7 6-6 6h-35.5" stroke="#3a414a" fill="none"/><path d="M1299.28 399.5l-20-10 20-10" stroke="#3a414a" fill="#fff" fill-opacity="0"/><path d="M1299.28 389.5h-20M1279.28 389.5c0 5.52-4.48 10-10 10-5.53 0-10-4.48-10-10s4.47-10 10-10c5.52 0 10 4.48 10 10M1148.5 448.5v-20M1138.5 438.5h20M1158.5 448.5v-20" stroke="#3a414a" fill="#fff"/><path d="M1260 463.5h-14c-3.3 0-6 2.7-6 6v468.98c0 3.32-2.7 6-6 6h-75.5" stroke="#3a414a" fill="none"/><path d="M1299.28 473.5l-20-10 20-10" stroke="#3a414a" fill="#fff" fill-opacity="0"/><path d="M1299.28 463.5h-20M1279.28 463.5c0 5.52-4.48 10-10 10-5.53 0-10-4.48-10-10s4.47-10 10-10c5.52 0 10 4.48 10 10M1148.5 954.48v-20M1138.5 944.48h20M1158.5 954.48v-20" stroke="#3a414a" fill="#fff"/><path d="M1678.5 352.5h61" stroke="#3a414a" fill="none"/><path d="M1668.5 362.5v-20M1658.5 352.5h20M1678.5 362.5v-20M1749.5 342.5v20M1759.5 352.5h-20M1739.5 342.5v20" stroke="#3a414a" fill="#fff"/><path d="M1678.5 537.5h14c3.3 0 6 2.7 6 6v129c0 3.3-2.7 6-6 6h-14" stroke="#3a414a" fill="none"/><path d="M1658.72 527.5l20 10-20 10" stroke="#3a414a" fill="#fff" fill-opacity="0"/><path d="M1658.72 537.5h20M1678.72 547.5v-20M1668.5 688.5v-20M1658.5 678.5h20M1678.5 688.5v-20" stroke="#3a414a" fill="#fff"/><path d="M1698 500.5h36c3.3 0 6 2.7 6 6v505.98c0 3.32-2.7 6-6 6h-55.5" stroke="#3a414a" fill="none"/><path d="M1658.72 490.5l20 10-20 10" stroke="#3a414a" fill="#fff" fill-opacity="0"/><path d="M1658.72 500.5h20M1698.72 500.5c0 5.52-4.47 10-10 10-5.52 0-10-4.48-10-10s4.48-10 10-10c5.53 0 10 4.48 10 10M1668.5 1028.48v-20M1658.5 1018.48h20M1678.5 1028.48v-20" stroke="#3a414a" fill="#fff"/><path d="M1158.5 1018.48h121" stroke="#3a414a" fill="none"/><path d="M1138.72 1008.48l20 10-20 10" stroke="#3a414a" fill="#fff" fill-opacity="0"/><path d="M1138.72 1018.48h20M1158.72 1028.48v-20M1289.5 1008.48v20M1299.5 1018.48h-20M1279.5 1008.48v20" stroke="#3a414a" fill="#fff"/><path d="M759.5 1055.48H726c-3.3 0-6-2.68-6-6v-333.5c0-3.3 2.7-6 6-6h33.5" stroke="#3a414a" fill="none"/><path d="M779.28 1065.48l-20-10 20-10" stroke="#3a414a" fill="#fff" fill-opacity="0"/><path d="M779.28 1055.48h-20M759.28 1045.48v20M769.5 700v20M779.5 710h-20M759.5 700v20" stroke="#3a414a" fill="#fff"/><path d="M1158.5 710h35.5c3.3 0 6-2.7 6-6V518.5c0-3.3-2.7-6-6-6h-16" stroke="#3a414a" fill="none"/><path d="M1148.5 720v-20M1138.5 710h20M1158.5 720v-20" stroke="#3a414a" fill="#fff"/><path d="M1138.72 502.5l20 10-20 10" stroke="#3a414a" fill="#fff" fill-opacity="0"/><path d="M1138.72 512.5h20M1178.72 512.5c0 5.52-4.47 10-10 10-5.52 0-10-4.48-10-10s4.48-10 10-10c5.53 0 10 4.48 10 10" stroke="#3a414a" fill="#fff"/><path d="M1279.5 315.5h-519" stroke="#3a414a" fill="none"/><path d="M1299.28 325.5l-20-10 20-10" stroke="#3a414a" fill="#fff" fill-opacity="0"/><path d="M1299.28 315.5h-20M1279.28 305.5v20M750.5 325.5v-20M740.5 315.5h20M760.5 325.5v-20" stroke="#3a414a" fill="#fff"/><defs><path fill="#333" d="M132-132c-21 0-37 9-50 16v100l26 4V0H10v-12l21-4v-133l-21-5v-11h69l2 34c17-18 35-41 71-40v61c-17 3-14-14-20-22" id="ad"/><path fill="#333" d="M12-83c0-55 22-85 75-86 52-1 66 33 63 88H64c-1 37 6 64 44 63 14 0 28-4 39-6 3 28-28 25-55 27-57 4-80-31-80-86zm90-17c2-26 0-63-27-48-10 9-11 28-11 48h38" id="ae"/><path fill="#333" d="M101-152c-33 3-35 37-35 73 0 33 4 62 35 63 9 0 22-3 27-7v-126c-8-1-18-3-27-3zM15-83c-5-75 54-97 127-83 11-4 21-9 37-7V61l18 4v12h-93V65l24-4 2-71C80 24 3-8 15-83" id="af"/><path fill="#333" d="M73-51c-3 31 27 38 51 25v-123l-16-5v-11h66v149l17 4V0h-65l-2-14C94 9 22 18 22-44v-105l-17-5v-11h68v114" id="ag"/><path fill="#333" d="M102-142c-14-17-68-15-54 18 24 26 83 17 83 72 0 62-72 62-120 47v-45h12c4 23 16 37 43 37 35 0 39-37 9-46-31-9-65-19-64-61 0-52 59-55 108-45v43h-11" id="ah"/><path fill="#333" d="M78-41c-2 24 21 26 40 20C122 3 98 2 77 4 5 10 32-84 27-147H6v-11l25-7 21-38h26v38h35v18H78v106" id="ai"/><g id="a"><use transform="matrix(0.06234567901234567,0,0,0.06234567901234567,0,0)" xlink:href="#ad"/><use transform="matrix(0.06234567901234567,0,0,0.06234567901234567,9.476543209876542,0)" xlink:href="#ae"/><use transform="matrix(0.06234567901234567,0,0,0.06234567901234567,19.389506172839504,0)" xlink:href="#af"/><use transform="matrix(0.06234567901234567,0,0,0.06234567901234567,31.858641975308636,0)" xlink:href="#ag"/><use transform="matrix(0.06234567901234567,0,0,0.06234567901234567,44.32777777777777,0)" xlink:href="#ae"/><use transform="matrix(0.06234567901234567,0,0,0.06234567901234567,54.24074074074073,0)" xlink:href="#ah"/><use transform="matrix(0.06234567901234567,0,0,0.06234567901234567,62.969135802469125,0)" xlink:href="#ai"/></g><path fill="#333" d="M75-108c48 3 76-12 76-58s-28-57-76-54v112zm111-58c-1 60-46 78-111 74v78l37 5v9H13v-9l28-5v-208l-31-4v-10c81 1 178-14 176 70" id="aj"/><path fill="#333" d="M238-236v10l-27 4-81 79L231-14l25 5v9h-57l-93-119-31 25v80l33 5v9H10v-9l31-5v-208l-31-4v-10h95v10l-30 4v111l112-111-23-4v-10h74" id="ak"/><g id="b"><use transform="matrix(0.06234567901234567,0,0,0.06234567901234567,0,0)" xlink:href="#aj"/><use transform="matrix(0.06234567901234567,0,0,0.06234567901234567,12.469135802469133,0)" xlink:href="#ak"/></g><path fill="#333" d="M57-145c16-10 35-24 60-25v45c-19 1-8-30-40-17l-20 6v124l29 4v8H7v-8l21-4v-141c-8-3-24 2-21-12h48" id="al"/><path fill="#333" d="M84-170c49 0 66 33 63 87H46c-8 60 38 80 95 63v10C128-2 108 4 88 4 34 4 14-29 14-84c-1-54 22-86 70-86zm33 73c12-57-57-82-69-24-1 7-2 15-2 24h71" id="am"/><path fill="#333" d="M13-82c-2-68 46-101 114-84 8-3 15-8 28-7V64l18 4v9h-70v-9l23-4c1-25-2-53 2-75-11 8-27 15-47 15-49-1-66-35-68-86zm113-70c-53-13-86 12-81 70-6 54 34 80 81 61v-131" id="an"/><path fill="#333" d="M124-13C89 8 26 15 26-45v-108c-8-3-24 2-21-12h50v118c-3 37 42 32 69 25v-131l-25-4v-8h54v153c8 3 24-2 21 12h-48" id="ao"/><path fill="#333" d="M41-130c7 48 86 23 86 84 0 56-69 57-112 41v-40c20 0 9 29 31 31 35 19 77-26 41-50-27-18-72-13-72-59 0-50 58-52 100-41v36c-19 1-8-25-28-25-21-7-50-1-46 23" id="ap"/><path fill="#333" d="M54-38c-1 25 24 26 44 20v12C71 10 25 9 25-35v-115H4c-2-14 14-10 21-15l18-38h11v38h38v15H54v112" id="aq"/><path fill="#333" d="M-3 46V28h186v18H-3" id="ar"/><path fill="#333" d="M47-200c-23 0-25-39 0-38 13 0 18 7 20 19-1 11-8 19-20 19zM65-12l28 4v8H8v-8l28-4v-141l-24-4v-8h53v153" id="as"/><path fill="#333" d="M13-81c0-71 46-101 114-85l-1-72-28-4v-8h57v238c8 3 24-2 21 12h-47l-2-12C80 23 13-1 13-81zm77-74c-37 1-44 33-45 74 0 38 9 66 45 66 14 0 27-3 36-7v-130c-10-1-24-3-36-3" id="at"/><g id="c"><use transform="matrix(0.06234567901234567,0,0,0.06234567901234567,0,0)" xlink:href="#al"/><use transform="matrix(0.06234567901234567,0,0,0.06234567901234567,7.4191358024691345,0)" xlink:href="#am"/><use transform="matrix(0.06234567901234567,0,0,0.06234567901234567,17.332098765432097,0)" xlink:href="#an"/><use transform="matrix(0.06234567901234567,0,0,0.06234567901234567,28.554320987654314,0)" xlink:href="#ao"/><use transform="matrix(0.06234567901234567,0,0,0.06234567901234567,39.776543209876536,0)" xlink:href="#am"/><use transform="matrix(0.06234567901234567,0,0,0.06234567901234567,49.6895061728395,0)" xlink:href="#ap"/><use transform="matrix(0.06234567901234567,0,0,0.06234567901234567,58.41790123456789,0)" xlink:href="#aq"/><use transform="matrix(0.06234567901234567,0,0,0.06234567901234567,64.65246913580246,0)" xlink:href="#ar"/><use transform="matrix(0.06234567901234567,0,0,0.06234567901234567,75.87469135802468,0)" xlink:href="#as"/><use transform="matrix(0.06234567901234567,0,0,0.06234567901234567,82.10925925925925,0)" xlink:href="#at"/></g><path fill="#333" d="M18-115v-9l167-82v18L43-120l142 69v18" id="au"/><path fill="#333" d="M32-163c41-10 102-14 102 39v112c8 3 24-2 21 12h-45l-4-17C83 13 3 13 13-46c-2-50 45-50 92-51 4-36-5-70-42-56-6 2-12 4-16 6-4 7 0 23-15 20v-36zM42-47c0 41 41 33 63 22v-59c-34 1-63-1-63 37" id="av"/><path fill="#333" d="M65-12l28 4v8H7v-8l28-4v-226l-28-4v-8h58v238" id="aw"/><path fill="#333" d="M18-33v-18l142-69-142-68v-18l168 82v9" id="ax"/><g id="d"><use transform="matrix(0.06234567901234567,0,0,0.06234567901234567,0,0)" xlink:href="#au"/><use transform="matrix(0.06234567901234567,0,0,0.06234567901234567,12.656172839506171,0)" xlink:href="#ap"/><use transform="matrix(0.06234567901234567,0,0,0.06234567901234567,21.384567901234565,0)" xlink:href="#am"/><use transform="matrix(0.06234567901234567,0,0,0.06234567901234567,31.297530864197526,0)" xlink:href="#al"/><use transform="matrix(0.06234567901234567,0,0,0.06234567901234567,38.71666666666666,0)" xlink:href="#as"/><use transform="matrix(0.06234567901234567,0,0,0.06234567901234567,44.951234567901224,0)" xlink:href="#av"/><use transform="matrix(0.06234567901234567,0,0,0.06234567901234567,54.86419753086419,0)" xlink:href="#aw"/><use transform="matrix(0.06234567901234567,0,0,0.06234567901234567,61.09876543209876,0)" xlink:href="#ax"/></g><path fill="#333" d="M75-106v92l39 5v9H13v-9l28-5v-208l-31-4v-10h177v57h-11l-6-38c-28-4-63-3-95-3v98h69l5-28h11v73h-11l-5-29H75" id="ay"/><g id="e"><use transform="matrix(0.06234567901234567,0,0,0.06234567901234567,0,0)" xlink:href="#ay"/><use transform="matrix(0.06234567901234567,0,0,0.06234567901234567,12.469135802469133,0)" xlink:href="#ak"/></g><path fill="#333" d="M203-222l-32-4v-10h81v10l-31 4V0h-17L59-212v198l32 5v9H10v-9l31-5v-208l-31-4v-10h72L203-61v-161" id="az"/><g id="f"><use transform="matrix(0.06234567901234567,0,0,0.06234567901234567,0,0)" xlink:href="#az"/><use transform="matrix(0.06234567901234567,0,0,0.06234567901234567,16.147530864197527,0)" xlink:href="#az"/></g><path fill="#333" d="M164-154L98 4H85L17-153c-7-3-20 0-17-12h77v8l-26 4L99-38l46-115-26-4v-8h61v8" id="aA"/><path fill="#333" d="M126-119c3-38-42-31-69-25v132l23 4v8H7v-8l21-4v-226l-24-4v-8h53l-1 98c31-22 99-31 99 31v109c7 3 23-1 20 12h-71v-8l22-4v-107" id="aB"/><path fill="#333" d="M45-84c0 64 52 80 104 63 1 25-30 25-55 25-56 0-80-32-80-88 0-76 62-98 131-80v46h-10c-5-15-4-31-23-35-47-10-67 21-67 69" id="aC"/><g id="g"><use transform="matrix(0.06234567901234567,0,0,0.06234567901234567,0,0)" xlink:href="#aA"/><use transform="matrix(0.06234567901234567,0,0,0.06234567901234567,11.22222222222222,0)" xlink:href="#am"/><use transform="matrix(0.06234567901234567,0,0,0.06234567901234567,21.13518518518518,0)" xlink:href="#aB"/><use transform="matrix(0.06234567901234567,0,0,0.06234567901234567,32.3574074074074,0)" xlink:href="#as"/><use transform="matrix(0.06234567901234567,0,0,0.06234567901234567,38.59197530864196,0)" xlink:href="#aC"/><use transform="matrix(0.06234567901234567,0,0,0.06234567901234567,48.50493827160493,0)" xlink:href="#aw"/><use transform="matrix(0.06234567901234567,0,0,0.06234567901234567,54.7395061728395,0)" xlink:href="#am"/><use transform="matrix(0.06234567901234567,0,0,0.06234567901234567,64.65246913580246,0)" xlink:href="#ar"/><use transform="matrix(0.06234567901234567,0,0,0.06234567901234567,75.87469135802468,0)" xlink:href="#as"/><use transform="matrix(0.06234567901234567,0,0,0.06234567901234567,82.10925925925925,0)" xlink:href="#at"/></g><path fill="#333" d="M125-118c4-37-41-34-68-26v132l23 4v8H8C5-13 21-9 28-12v-141c-7-3-23 1-20-12h47l2 13c31-23 98-29 98 31v109c7 3 23-1 20 12h-72v-8l22-4v-106" id="aD"/><path fill="#333" d="M141-152c28 39 5 97-54 97-9 0-20-2-27-3L49-35c29 22 130-14 124 52-4 45-38 57-88 61C21 83-8 26 45-2 33-6 22-15 21-31l28-31c-19-9-28-26-28-51-2-51 53-65 100-52l38-20 7 8zM85 64c35 0 61-11 61-42 0-35-57-17-89-21-9 8-16 19-17 34 0 25 19 29 45 29zM52-113c1 26 7 46 35 44 28-1 34-16 35-44 0-26-6-43-34-43s-36 17-36 43" id="aE"/><g id="h"><use transform="matrix(0.06234567901234567,0,0,0.06234567901234567,0,0)" xlink:href="#au"/><use transform="matrix(0.06234567901234567,0,0,0.06234567901234567,12.656172839506171,0)" xlink:href="#as"/><use transform="matrix(0.06234567901234567,0,0,0.06234567901234567,18.89074074074074,0)" xlink:href="#aD"/><use transform="matrix(0.06234567901234567,0,0,0.06234567901234567,30.11296296296296,0)" xlink:href="#aq"/><use transform="matrix(0.06234567901234567,0,0,0.06234567901234567,36.34753086419752,0)" xlink:href="#am"/><use transform="matrix(0.06234567901234567,0,0,0.06234567901234567,46.26049382716049,0)" xlink:href="#aE"/><use transform="matrix(0.06234567901234567,0,0,0.06234567901234567,57.48271604938271,0)" xlink:href="#am"/><use transform="matrix(0.06234567901234567,0,0,0.06234567901234567,67.39567901234567,0)" xlink:href="#al"/><use transform="matrix(0.06234567901234567,0,0,0.06234567901234567,74.8148148148148,0)" xlink:href="#ax"/></g><path fill="#333" d="M90-170c52 0 76 32 76 87 0 54-24 87-77 87-51 0-75-34-75-87 0-54 24-87 76-87zM89-10c39 0 46-35 46-73 0-39-7-73-46-73-39 1-44 34-44 73s6 72 44 73" id="aF"/><g id="i"><use transform="matrix(0.06234567901234567,0,0,0.06234567901234567,0,0)" xlink:href="#at"/><use transform="matrix(0.06234567901234567,0,0,0.06234567901234567,11.22222222222222,0)" xlink:href="#ao"/><use transform="matrix(0.06234567901234567,0,0,0.06234567901234567,22.44444444444444,0)" xlink:href="#al"/><use transform="matrix(0.06234567901234567,0,0,0.06234567901234567,29.863580246913575,0)" xlink:href="#av"/><use transform="matrix(0.06234567901234567,0,0,0.06234567901234567,39.776543209876536,0)" xlink:href="#aq"/><use transform="matrix(0.06234567901234567,0,0,0.06234567901234567,46.011111111111106,0)" xlink:href="#as"/><use transform="matrix(0.06234567901234567,0,0,0.06234567901234567,52.245679012345676,0)" xlink:href="#aF"/><use transform="matrix(0.06234567901234567,0,0,0.06234567901234567,63.4679012345679,0)" xlink:href="#aD"/><use transform="matrix(0.06234567901234567,0,0,0.06234567901234567,74.69012345679012,0)" xlink:href="#ar"/><use transform="matrix(0.06234567901234567,0,0,0.06234567901234567,85.91234567901233,0)" xlink:href="#as"/><use transform="matrix(0.06234567901234567,0,0,0.06234567901234567,92.1469135802469,0)" xlink:href="#at"/></g><path fill="#333" d="M240-154L185 4h-14l-41-109L90 4H77L20-153c-7-3-23 1-20-12h79v8l-27 4L91-41l40-108h14l40 109 38-113-28-4v-8h63v8" id="aG"/><path fill="#333" d="M60-80l68-73c-7-3-20 0-17-12h58c3 13-13 9-20 12l-47 48 60 93c7 3 21-1 18 12h-68c-3-12 9-9 15-12L82-83 60-60v48c7 3 21-1 18 12H10v-8l21-4v-226l-24-4v-8h53v170" id="aH"/><path fill="#333" d="M161-154L85 37C75 66 49 86 8 75V39c18-2 6 24 29 21 30-4 38-32 47-58L21-153c-7-3-20 0-17-12h77v8l-26 4 45 116 43-116-26-4v-8h62v8" id="aI"/><path fill="#333" d="M166-85c3 67-44 102-111 85l1 64 29 4v9H6v-9l21-4v-217c-7-3-22 1-19-12h46l1 9c11-8 26-14 45-14 47 2 64 36 66 85zM56-13c53 14 83-14 78-72 7-53-33-79-78-60v132" id="aJ"/><g id="j"><use transform="matrix(0.06234567901234567,0,0,0.06234567901234567,0,0)" xlink:href="#aG"/><use transform="matrix(0.06234567901234567,0,0,0.06234567901234567,16.147530864197527,0)" xlink:href="#aF"/><use transform="matrix(0.06234567901234567,0,0,0.06234567901234567,27.36975308641975,0)" xlink:href="#al"/><use transform="matrix(0.06234567901234567,0,0,0.06234567901234567,34.788888888888884,0)" xlink:href="#aH"/><use transform="matrix(0.06234567901234567,0,0,0.06234567901234567,46.011111111111106,0)" xlink:href="#ar"/><use transform="matrix(0.06234567901234567,0,0,0.06234567901234567,57.23333333333333,0)" xlink:href="#aq"/><use transform="matrix(0.06234567901234567,0,0,0.06234567901234567,63.46790123456789,0)" xlink:href="#aI"/><use transform="matrix(0.06234567901234567,0,0,0.06234567901234567,74.6901234567901,0)" xlink:href="#aJ"/><use transform="matrix(0.06234567901234567,0,0,0.06234567901234567,85.91234567901232,0)" xlink:href="#am"/><use transform="matrix(0.06234567901234567,0,0,0.06234567901234567,95.82530864197528,0)" xlink:href="#ar"/><use transform="matrix(0.06234567901234567,0,0,0.06234567901234567,107.0475308641975,0)" xlink:href="#as"/><use transform="matrix(0.06234567901234567,0,0,0.06234567901234567,113.28209876543207,0)" xlink:href="#at"/></g><g id="k"><use transform="matrix(0.06234567901234567,0,0,0.06234567901234567,0,0)" xlink:href="#az"/><use transform="matrix(0.06234567901234567,0,0,0.06234567901234567,16.147530864197527,0)" xlink:href="#az"/></g><g id="l"><use transform="matrix(0.06234567901234567,0,0,0.06234567901234567,0,0)" xlink:href="#ap"/><use transform="matrix(0.06234567901234567,0,0,0.06234567901234567,8.728395061728394,0)" xlink:href="#aq"/><use transform="matrix(0.06234567901234567,0,0,0.06234567901234567,14.96296296296296,0)" xlink:href="#av"/><use transform="matrix(0.06234567901234567,0,0,0.06234567901234567,24.87592592592592,0)" xlink:href="#aq"/><use transform="matrix(0.06234567901234567,0,0,0.06234567901234567,31.110493827160486,0)" xlink:href="#ao"/><use transform="matrix(0.06234567901234567,0,0,0.06234567901234567,42.332716049382704,0)" xlink:href="#ap"/></g><path fill="#333" d="M126-118c4-37-42-32-68-25v131l24 4v8H8C5-13 21-9 28-12v-141c-7-3-23 1-20-12h48l1 13c22-15 77-30 92 2 32-22 104-36 104 29v109c8 3 24-2 21 12h-75v-8l25-4v-106c3-39-45-31-72-24 7 37 1 88 3 130l25 4v8h-78v-8l24-4v-106" id="aK"/><g id="m"><use transform="matrix(0.06234567901234567,0,0,0.06234567901234567,0,0)" xlink:href="#au"/><use transform="matrix(0.06234567901234567,0,0,0.06234567901234567,12.656172839506171,0)" xlink:href="#am"/><use transform="matrix(0.06234567901234567,0,0,0.06234567901234567,22.569135802469134,0)" xlink:href="#aD"/><use transform="matrix(0.06234567901234567,0,0,0.06234567901234567,33.791358024691355,0)" xlink:href="#ao"/><use transform="matrix(0.06234567901234567,0,0,0.06234567901234567,45.01358024691358,0)" xlink:href="#aK"/><use transform="matrix(0.06234567901234567,0,0,0.06234567901234567,62.47037037037036,0)" xlink:href="#ax"/></g><g id="n"><use transform="matrix(0.06234567901234567,0,0,0.06234567901234567,0,0)" xlink:href="#aK"/><use transform="matrix(0.06234567901234567,0,0,0.06234567901234567,17.456790123456788,0)" xlink:href="#av"/><use transform="matrix(0.06234567901234567,0,0,0.06234567901234567,27.36975308641975,0)" xlink:href="#ap"/><use transform="matrix(0.06234567901234567,0,0,0.06234567901234567,36.09814814814814,0)" xlink:href="#aq"/><use transform="matrix(0.06234567901234567,0,0,0.06234567901234567,42.33271604938271,0)" xlink:href="#am"/><use transform="matrix(0.06234567901234567,0,0,0.06234567901234567,52.245679012345676,0)" xlink:href="#al"/><use transform="matrix(0.06234567901234567,0,0,0.06234567901234567,59.66481481481481,0)" xlink:href="#ar"/><use transform="matrix(0.06234567901234567,0,0,0.06234567901234567,70.88703703703703,0)" xlink:href="#as"/><use transform="matrix(0.06234567901234567,0,0,0.06234567901234567,77.1216049382716,0)" xlink:href="#at"/></g><g id="o"><use transform="matrix(0.06234567901234567,0,0,0.06234567901234567,0,0)" xlink:href="#ap"/><use transform="matrix(0.06234567901234567,0,0,0.06234567901234567,8.728395061728394,0)" xlink:href="#am"/><use transform="matrix(0.06234567901234567,0,0,0.06234567901234567,18.641358024691357,0)" xlink:href="#al"/><use transform="matrix(0.06234567901234567,0,0,0.06234567901234567,26.060493827160492,0)" xlink:href="#aA"/><use transform="matrix(0.06234567901234567,0,0,0.06234567901234567,37.282716049382714,0)" xlink:href="#as"/><use transform="matrix(0.06234567901234567,0,0,0.06234567901234567,43.51728395061728,0)" xlink:href="#aC"/><use transform="matrix(0.06234567901234567,0,0,0.06234567901234567,53.43024691358025,0)" xlink:href="#am"/><use transform="matrix(0.06234567901234567,0,0,0.06234567901234567,63.34320987654321,0)" xlink:href="#ar"/><use transform="matrix(0.06234567901234567,0,0,0.06234567901234567,74.56543209876543,0)" xlink:href="#ap"/><use transform="matrix(0.06234567901234567,0,0,0.06234567901234567,83.29382716049382,0)" xlink:href="#aq"/><use transform="matrix(0.06234567901234567,0,0,0.06234567901234567,89.52839506172839,0)" xlink:href="#av"/><use transform="matrix(0.06234567901234567,0,0,0.06234567901234567,99.44135802469135,0)" xlink:href="#aq"/><use transform="matrix(0.06234567901234567,0,0,0.06234567901234567,105.67592592592592,0)" xlink:href="#as"/><use transform="matrix(0.06234567901234567,0,0,0.06234567901234567,111.9104938271605,0)" xlink:href="#aF"/><use transform="matrix(0.06234567901234567,0,0,0.06234567901234567,123.13271604938271,0)" xlink:href="#aD"/><use transform="matrix(0.06234567901234567,0,0,0.06234567901234567,134.35493827160494,0)" xlink:href="#ar"/><use transform="matrix(0.06234567901234567,0,0,0.06234567901234567,145.57716049382717,0)" xlink:href="#as"/><use transform="matrix(0.06234567901234567,0,0,0.06234567901234567,151.81172839506172,0)" xlink:href="#at"/></g><g id="p"><use transform="matrix(0.06234567901234567,0,0,0.06234567901234567,0,0)" xlink:href="#aC"/><use transform="matrix(0.06234567901234567,0,0,0.06234567901234567,9.912962962962961,0)" xlink:href="#aF"/><use transform="matrix(0.06234567901234567,0,0,0.06234567901234567,21.13518518518518,0)" xlink:href="#ap"/><use transform="matrix(0.06234567901234567,0,0,0.06234567901234567,29.86358024691357,0)" xlink:href="#aq"/><use transform="matrix(0.06234567901234567,0,0,0.06234567901234567,36.09814814814814,0)" xlink:href="#ar"/><use transform="matrix(0.06234567901234567,0,0,0.06234567901234567,47.32037037037036,0)" xlink:href="#as"/><use transform="matrix(0.06234567901234567,0,0,0.06234567901234567,53.554938271604925,0)" xlink:href="#at"/></g><path fill="#333" d="M154-149l38 94 32-94-20-5v-11h54v11l-13 4L190 4h-21l-38-93L93 4H72L13-149c-7-2-15-4-12-16h82v11l-20 5 36 94 38-94h17" id="aL"/><path fill="#333" d="M90-170c54-1 76 32 76 87 1 56-23 87-77 87-53 0-75-32-75-87s23-86 76-87zM89-14c28-2 26-38 26-69s3-69-26-69c-27 0-24 39-24 69s-3 66 24 69" id="aM"/><path fill="#333" d="M77-79l64-71-17-4v-11h63v11c-32 3-40 30-59 46l57 92 15 4V0h-80c-2-11 3-15 10-16L97-74 77-60v44l16 4V0H10v-12l16-4v-218l-17-4v-12h68v171" id="aN"/><path fill="#333" d="M-3 50V25h186v25H-3" id="aO"/><path fill="#333" d="M81 5L15-149c-7-2-13-5-11-16h84v11l-20 5 39 91 35-91-19-5v-11h53c2 11-4 13-11 15C134-81 111-5 75 58 65 77 34 83 8 74V32h11c0 24 29 35 43 12 7-11 13-25 19-39" id="aP"/><path fill="#333" d="M186-86c2 69-46 103-114 85l1 62 25 4v12H5V65l18-4v-210l-18-5v-11h67v8c12-8 26-13 46-13 49 2 67 30 68 84zm-83 71c28 0 31-33 31-69 0-34-2-66-30-66-12 0-23 3-31 7v124c9 2 20 4 30 4" id="aQ"/><g id="q"><use transform="matrix(0.06234567901234567,0,0,0.06234567901234567,0,0)" xlink:href="#aL"/><use transform="matrix(0.06234567901234567,0,0,0.06234567901234567,16.147530864197527,0)" xlink:href="#aM"/><use transform="matrix(0.06234567901234567,0,0,0.06234567901234567,27.36975308641975,0)" xlink:href="#ad"/><use transform="matrix(0.06234567901234567,0,0,0.06234567901234567,37.282716049382714,0)" xlink:href="#aN"/><use transform="matrix(0.06234567901234567,0,0,0.06234567901234567,49.751851851851846,0)" xlink:href="#aO"/><use transform="matrix(0.06234567901234567,0,0,0.06234567901234567,60.97407407407407,0)" xlink:href="#ai"/><use transform="matrix(0.06234567901234567,0,0,0.06234567901234567,68.3932098765432,0)" xlink:href="#aP"/><use transform="matrix(0.06234567901234567,0,0,0.06234567901234567,79.61543209876541,0)" xlink:href="#aQ"/><use transform="matrix(0.06234567901234567,0,0,0.06234567901234567,92.08456790123455,0)" xlink:href="#ae"/></g><g id="r"><use transform="matrix(0.06234567901234567,0,0,0.06234567901234567,0,0)" xlink:href="#aK"/><use transform="matrix(0.06234567901234567,0,0,0.06234567901234567,17.456790123456788,0)" xlink:href="#av"/><use transform="matrix(0.06234567901234567,0,0,0.06234567901234567,27.36975308641975,0)" xlink:href="#as"/><use transform="matrix(0.06234567901234567,0,0,0.06234567901234567,33.60432098765432,0)" xlink:href="#aD"/><use transform="matrix(0.06234567901234567,0,0,0.06234567901234567,44.82654320987654,0)" xlink:href="#aq"/><use transform="matrix(0.06234567901234567,0,0,0.06234567901234567,51.0611111111111,0)" xlink:href="#am"/><use transform="matrix(0.06234567901234567,0,0,0.06234567901234567,60.97407407407407,0)" xlink:href="#aD"/><use transform="matrix(0.06234567901234567,0,0,0.06234567901234567,72.19629629629628,0)" xlink:href="#av"/><use transform="matrix(0.06234567901234567,0,0,0.06234567901234567,82.10925925925925,0)" xlink:href="#aD"/><use transform="matrix(0.06234567901234567,0,0,0.06234567901234567,93.33148148148146,0)" xlink:href="#aC"/><use transform="matrix(0.06234567901234567,0,0,0.06234567901234567,103.24444444444443,0)" xlink:href="#am"/><use transform="matrix(0.06234567901234567,0,0,0.06234567901234567,113.15740740740739,0)" xlink:href="#au"/><use transform="matrix(0.06234567901234567,0,0,0.06234567901234567,125.81358024691356,0)" xlink:href="#am"/><use transform="matrix(0.06234567901234567,0,0,0.06234567901234567,135.72654320987652,0)" xlink:href="#aD"/><use transform="matrix(0.06234567901234567,0,0,0.06234567901234567,146.94876543209875,0)" xlink:href="#ao"/><use transform="matrix(0.06234567901234567,0,0,0.06234567901234567,158.17098765432098,0)" xlink:href="#aK"/><use transform="matrix(0.06234567901234567,0,0,0.06234567901234567,175.62777777777777,0)" xlink:href="#ax"/></g><g id="s"><use transform="matrix(0.06234567901234567,0,0,0.06234567901234567,0,0)" xlink:href="#ay"/><use transform="matrix(0.06234567901234567,0,0,0.06234567901234567,12.469135802469133,0)" xlink:href="#ak"/></g><g id="t"><use transform="matrix(0.06234567901234567,0,0,0.06234567901234567,0,0)" xlink:href="#az"/><use transform="matrix(0.06234567901234567,0,0,0.06234567901234567,16.147530864197527,0)" xlink:href="#az"/></g><path fill="#333" d="M10 0v-8l90-143c-23 2-54-4-70 6-5 8 1 26-14 24v-44h122v8L47-14c29-2 65 3 86-8l9-35h8l-5 57H10" id="aR"/><g id="u"><use transform="matrix(0.06234567901234567,0,0,0.06234567901234567,0,0)" xlink:href="#ap"/><use transform="matrix(0.06234567901234567,0,0,0.06234567901234567,8.728395061728394,0)" xlink:href="#aJ"/><use transform="matrix(0.06234567901234567,0,0,0.06234567901234567,19.950617283950614,0)" xlink:href="#am"/><use transform="matrix(0.06234567901234567,0,0,0.06234567901234567,29.863580246913575,0)" xlink:href="#aC"/><use transform="matrix(0.06234567901234567,0,0,0.06234567901234567,39.776543209876536,0)" xlink:href="#as"/><use transform="matrix(0.06234567901234567,0,0,0.06234567901234567,46.011111111111106,0)" xlink:href="#av"/><use transform="matrix(0.06234567901234567,0,0,0.06234567901234567,55.92407407407407,0)" xlink:href="#aw"/><use transform="matrix(0.06234567901234567,0,0,0.06234567901234567,62.15864197530864,0)" xlink:href="#as"/><use transform="matrix(0.06234567901234567,0,0,0.06234567901234567,68.39320987654321,0)" xlink:href="#aR"/><use transform="matrix(0.06234567901234567,0,0,0.06234567901234567,78.30617283950617,0)" xlink:href="#av"/><use transform="matrix(0.06234567901234567,0,0,0.06234567901234567,88.21913580246914,0)" xlink:href="#aq"/><use transform="matrix(0.06234567901234567,0,0,0.06234567901234567,94.45370370370371,0)" xlink:href="#as"/><use transform="matrix(0.06234567901234567,0,0,0.06234567901234567,100.68827160493828,0)" xlink:href="#aF"/><use transform="matrix(0.06234567901234567,0,0,0.06234567901234567,111.9104938271605,0)" xlink:href="#aD"/><use transform="matrix(0.06234567901234567,0,0,0.06234567901234567,123.13271604938271,0)" xlink:href="#ar"/><use transform="matrix(0.06234567901234567,0,0,0.06234567901234567,134.35493827160494,0)" xlink:href="#as"/><use transform="matrix(0.06234567901234567,0,0,0.06234567901234567,140.5895061728395,0)" xlink:href="#at"/></g><g id="v"><use transform="matrix(0.06234567901234567,0,0,0.06234567901234567,0,0)" xlink:href="#au"/><use transform="matrix(0.06234567901234567,0,0,0.06234567901234567,12.656172839506171,0)" xlink:href="#as"/><use transform="matrix(0.06234567901234567,0,0,0.06234567901234567,18.89074074074074,0)" xlink:href="#aD"/><use transform="matrix(0.06234567901234567,0,0,0.06234567901234567,30.11296296296296,0)" xlink:href="#aq"/><use transform="matrix(0.06234567901234567,0,0,0.06234567901234567,36.34753086419752,0)" xlink:href="#am"/><use transform="matrix(0.06234567901234567,0,0,0.06234567901234567,46.26049382716049,0)" xlink:href="#aE"/><use transform="matrix(0.06234567901234567,0,0,0.06234567901234567,57.48271604938271,0)" xlink:href="#am"/><use transform="matrix(0.06234567901234567,0,0,0.06234567901234567,67.39567901234567,0)" xlink:href="#al"/><use transform="matrix(0.06234567901234567,0,0,0.06234567901234567,74.8148148148148,0)" xlink:href="#ax"/></g><path fill="#333" d="M15-82c-4-69 47-101 113-83l-1-69-17-4v-12h68v234l18 4V0h-63l-4-9C77 23 5-9 15-82zm112-66c-43-16-64 17-61 65 2 33 3 67 32 67 12 0 22-3 29-8v-124" id="aS"/><path fill="#333" d="M31-163c51-5 127-20 127 40v107l17 4V0h-61l-4-13C82 13 12 12 12-46c0-51 46-52 95-53 9-45-22-69-57-44l-7 20H31v-40zM62-47c0 30 26 34 45 23v-59c-28 0-45 6-45 36" id="aT"/><path fill="#333" d="M77-16l18 4V0H8v-12l18-4v-133l-17-5v-11h68v149zM51-196c-16 0-27-10-27-27s10-27 27-27 27 11 27 27c0 17-10 27-27 27" id="aU"/><path fill="#333" d="M127-114c3-31-26-38-50-25v123l15 4V0H10v-12l16-4v-133l-16-5v-11h64l2 14c31-23 102-32 102 30v105l17 4V0h-82v-12l14-4v-98" id="aV"/><g id="w"><use transform="matrix(0.06234567901234567,0,0,0.06234567901234567,0,0)" xlink:href="#aS"/><use transform="matrix(0.06234567901234567,0,0,0.06234567901234567,12.469135802469133,0)" xlink:href="#ag"/><use transform="matrix(0.06234567901234567,0,0,0.06234567901234567,24.938271604938265,0)" xlink:href="#ad"/><use transform="matrix(0.06234567901234567,0,0,0.06234567901234567,34.85123456790123,0)" xlink:href="#aT"/><use transform="matrix(0.06234567901234567,0,0,0.06234567901234567,46.07345679012345,0)" xlink:href="#ai"/><use transform="matrix(0.06234567901234567,0,0,0.06234567901234567,53.49259259259259,0)" xlink:href="#aU"/><use transform="matrix(0.06234567901234567,0,0,0.06234567901234567,59.72716049382716,0)" xlink:href="#aM"/><use transform="matrix(0.06234567901234567,0,0,0.06234567901234567,70.94938271604937,0)" xlink:href="#aV"/></g><g id="x"><use transform="matrix(0.06234567901234567,0,0,0.06234567901234567,0,0)" xlink:href="#az"/><use transform="matrix(0.06234567901234567,0,0,0.06234567901234567,16.147530864197527,0)" xlink:href="#az"/></g><g id="y"><use transform="matrix(0.06234567901234567,0,0,0.06234567901234567,0,0)" xlink:href="#al"/><use transform="matrix(0.06234567901234567,0,0,0.06234567901234567,7.4191358024691345,0)" xlink:href="#am"/><use transform="matrix(0.06234567901234567,0,0,0.06234567901234567,17.332098765432097,0)" xlink:href="#an"/><use transform="matrix(0.06234567901234567,0,0,0.06234567901234567,28.554320987654314,0)" xlink:href="#ao"/><use transform="matrix(0.06234567901234567,0,0,0.06234567901234567,39.776543209876536,0)" xlink:href="#am"/><use transform="matrix(0.06234567901234567,0,0,0.06234567901234567,49.6895061728395,0)" xlink:href="#ap"/><use transform="matrix(0.06234567901234567,0,0,0.06234567901234567,58.41790123456789,0)" xlink:href="#aq"/><use transform="matrix(0.06234567901234567,0,0,0.06234567901234567,64.65246913580246,0)" xlink:href="#ar"/><use transform="matrix(0.06234567901234567,0,0,0.06234567901234567,75.87469135802468,0)" xlink:href="#at"/><use transform="matrix(0.06234567901234567,0,0,0.06234567901234567,87.09691358024689,0)" xlink:href="#av"/><use transform="matrix(0.06234567901234567,0,0,0.06234567901234567,97.00987654320986,0)" xlink:href="#aq"/><use transform="matrix(0.06234567901234567,0,0,0.06234567901234567,103.24444444444443,0)" xlink:href="#am"/></g><g id="z"><use transform="matrix(0.06234567901234567,0,0,0.06234567901234567,0,0)" xlink:href="#au"/><use transform="matrix(0.06234567901234567,0,0,0.06234567901234567,12.656172839506171,0)" xlink:href="#at"/><use transform="matrix(0.06234567901234567,0,0,0.06234567901234567,23.87839506172839,0)" xlink:href="#av"/><use transform="matrix(0.06234567901234567,0,0,0.06234567901234567,33.79135802469135,0)" xlink:href="#aq"/><use transform="matrix(0.06234567901234567,0,0,0.06234567901234567,40.02592592592592,0)" xlink:href="#am"/><use transform="matrix(0.06234567901234567,0,0,0.06234567901234567,49.93888888888888,0)" xlink:href="#ax"/></g><g id="A"><use transform="matrix(0.06234567901234567,0,0,0.06234567901234567,0,0)" xlink:href="#aC"/><use transform="matrix(0.06234567901234567,0,0,0.06234567901234567,9.912962962962961,0)" xlink:href="#aF"/><use transform="matrix(0.06234567901234567,0,0,0.06234567901234567,21.13518518518518,0)" xlink:href="#aK"/><use transform="matrix(0.06234567901234567,0,0,0.06234567901234567,38.59197530864196,0)" xlink:href="#aJ"/><use transform="matrix(0.06234567901234567,0,0,0.06234567901234567,49.814197530864185,0)" xlink:href="#aw"/><use transform="matrix(0.06234567901234567,0,0,0.06234567901234567,56.04876543209875,0)" xlink:href="#am"/><use transform="matrix(0.06234567901234567,0,0,0.06234567901234567,65.96172839506171,0)" xlink:href="#aq"/><use transform="matrix(0.06234567901234567,0,0,0.06234567901234567,72.19629629629628,0)" xlink:href="#as"/><use transform="matrix(0.06234567901234567,0,0,0.06234567901234567,78.43086419753085,0)" xlink:href="#aF"/><use transform="matrix(0.06234567901234567,0,0,0.06234567901234567,89.65308641975307,0)" xlink:href="#aD"/><use transform="matrix(0.06234567901234567,0,0,0.06234567901234567,100.87530864197528,0)" xlink:href="#ar"/><use transform="matrix(0.06234567901234567,0,0,0.06234567901234567,112.0975308641975,0)" xlink:href="#at"/><use transform="matrix(0.06234567901234567,0,0,0.06234567901234567,123.31975308641971,0)" xlink:href="#av"/><use transform="matrix(0.06234567901234567,0,0,0.06234567901234567,133.23271604938267,0)" xlink:href="#aq"/><use transform="matrix(0.06234567901234567,0,0,0.06234567901234567,139.46728395061723,0)" xlink:href="#am"/></g><path fill="#333" d="M109-18c15 0 31-2 42-6v14c-11 9-31 13-51 13-59 0-86-28-88-86-3-75 66-101 135-80v48h-13c-3-20-7-40-34-37-51 7-55 138 9 134" id="aW"/><path fill="#333" d="M76-16l18 4V0H7v-12l18-4v-218l-17-4v-12h68v234" id="aX"/><path fill="#333" d="M7 0v-8l76-141c-18 1-39-3-50 6l-6 27H14v-49h129v8L67-16c24 0 48 1 63-8l9-38h13l-5 62H7" id="aY"/><g id="B"><use transform="matrix(0.06234567901234567,0,0,0.06234567901234567,0,0)" xlink:href="#ah"/><use transform="matrix(0.06234567901234567,0,0,0.06234567901234567,8.728395061728394,0)" xlink:href="#aQ"/><use transform="matrix(0.06234567901234567,0,0,0.06234567901234567,21.197530864197525,0)" xlink:href="#ae"/><use transform="matrix(0.06234567901234567,0,0,0.06234567901234567,31.110493827160486,0)" xlink:href="#aW"/><use transform="matrix(0.06234567901234567,0,0,0.06234567901234567,41.02345679012345,0)" xlink:href="#aU"/><use transform="matrix(0.06234567901234567,0,0,0.06234567901234567,47.25802469135802,0)" xlink:href="#aT"/><use transform="matrix(0.06234567901234567,0,0,0.06234567901234567,58.48024691358024,0)" xlink:href="#aX"/><use transform="matrix(0.06234567901234567,0,0,0.06234567901234567,64.7148148148148,0)" xlink:href="#aU"/><use transform="matrix(0.06234567901234567,0,0,0.06234567901234567,70.94938271604937,0)" xlink:href="#aY"/><use transform="matrix(0.06234567901234567,0,0,0.06234567901234567,80.86234567901234,0)" xlink:href="#aT"/><use transform="matrix(0.06234567901234567,0,0,0.06234567901234567,92.08456790123455,0)" xlink:href="#ai"/><use transform="matrix(0.06234567901234567,0,0,0.06234567901234567,99.50370370370368,0)" xlink:href="#aU"/><use transform="matrix(0.06234567901234567,0,0,0.06234567901234567,105.73827160493825,0)" xlink:href="#aM"/><use transform="matrix(0.06234567901234567,0,0,0.06234567901234567,116.96049382716046,0)" xlink:href="#aV"/></g><g id="C"><use transform="matrix(0.06234567901234567,0,0,0.06234567901234567,0,0)" xlink:href="#ap"/><use transform="matrix(0.06234567901234567,0,0,0.06234567901234567,8.728395061728394,0)" xlink:href="#aJ"/><use transform="matrix(0.06234567901234567,0,0,0.06234567901234567,19.950617283950614,0)" xlink:href="#am"/><use transform="matrix(0.06234567901234567,0,0,0.06234567901234567,29.863580246913575,0)" xlink:href="#aC"/><use transform="matrix(0.06234567901234567,0,0,0.06234567901234567,39.776543209876536,0)" xlink:href="#as"/><use transform="matrix(0.06234567901234567,0,0,0.06234567901234567,46.011111111111106,0)" xlink:href="#av"/><use transform="matrix(0.06234567901234567,0,0,0.06234567901234567,55.92407407407407,0)" xlink:href="#aw"/><use transform="matrix(0.06234567901234567,0,0,0.06234567901234567,62.15864197530864,0)" xlink:href="#as"/><use transform="matrix(0.06234567901234567,0,0,0.06234567901234567,68.39320987654321,0)" xlink:href="#aR"/><use transform="matrix(0.06234567901234567,0,0,0.06234567901234567,78.30617283950617,0)" xlink:href="#av"/><use transform="matrix(0.06234567901234567,0,0,0.06234567901234567,88.21913580246914,0)" xlink:href="#aq"/><use transform="matrix(0.06234567901234567,0,0,0.06234567901234567,94.45370370370371,0)" xlink:href="#as"/><use transform="matrix(0.06234567901234567,0,0,0.06234567901234567,100.68827160493828,0)" xlink:href="#aF"/><use transform="matrix(0.06234567901234567,0,0,0.06234567901234567,111.9104938271605,0)" xlink:href="#aD"/><use transform="matrix(0.06234567901234567,0,0,0.06234567901234567,123.13271604938271,0)" xlink:href="#ar"/><use transform="matrix(0.06234567901234567,0,0,0.06234567901234567,134.35493827160494,0)" xlink:href="#as"/><use transform="matrix(0.06234567901234567,0,0,0.06234567901234567,140.5895061728395,0)" xlink:href="#at"/></g><path fill="#333" d="M134-16c44-1 70-21 70-64v-142l-32-4v-10h80v10l-30 4v141c0 57-33 84-91 85-58 0-93-26-93-82v-144l-30-4v-10h94v10l-30 4c7 82-31 209 62 206" id="aZ"/><path fill="#333" d="M130-224c-62 0-78 43-78 106 0 64 16 108 78 108s78-44 78-108c0-63-16-106-78-106zM145 3C61 9 15-34 15-118c0-80 37-120 115-120 77 0 115 42 115 120 1 59-21 95-62 112 19 19 30 53 71 46v12c-30 12-67 2-84-19" id="ba"/><g id="D"><use transform="matrix(0.06234567901234567,0,0,0.06234567901234567,0,0)" xlink:href="#aZ"/><use transform="matrix(0.06234567901234567,0,0,0.06234567901234567,16.147530864197527,0)" xlink:href="#ba"/></g><g id="E"><use transform="matrix(0.06234567901234567,0,0,0.06234567901234567,0,0)" xlink:href="#ap"/><use transform="matrix(0.06234567901234567,0,0,0.06234567901234567,8.728395061728394,0)" xlink:href="#aJ"/><use transform="matrix(0.06234567901234567,0,0,0.06234567901234567,19.950617283950614,0)" xlink:href="#am"/><use transform="matrix(0.06234567901234567,0,0,0.06234567901234567,29.863580246913575,0)" xlink:href="#aC"/><use transform="matrix(0.06234567901234567,0,0,0.06234567901234567,39.776543209876536,0)" xlink:href="#as"/><use transform="matrix(0.06234567901234567,0,0,0.06234567901234567,46.011111111111106,0)" xlink:href="#av"/><use transform="matrix(0.06234567901234567,0,0,0.06234567901234567,55.92407407407407,0)" xlink:href="#aw"/><use transform="matrix(0.06234567901234567,0,0,0.06234567901234567,62.15864197530864,0)" xlink:href="#as"/><use transform="matrix(0.06234567901234567,0,0,0.06234567901234567,68.39320987654321,0)" xlink:href="#aR"/><use transform="matrix(0.06234567901234567,0,0,0.06234567901234567,78.30617283950617,0)" xlink:href="#av"/><use transform="matrix(0.06234567901234567,0,0,0.06234567901234567,88.21913580246914,0)" xlink:href="#aq"/><use transform="matrix(0.06234567901234567,0,0,0.06234567901234567,94.45370370370371,0)" xlink:href="#as"/><use transform="matrix(0.06234567901234567,0,0,0.06234567901234567,100.68827160493828,0)" xlink:href="#aF"/><use transform="matrix(0.06234567901234567,0,0,0.06234567901234567,111.9104938271605,0)" xlink:href="#aD"/></g><path fill="#333" d="M156-12c7 3 23-1 20 12h-75v-8l22-4-38-58-45 58 23 4v8H3v-8l19-3 55-71-48-71c-7-3-23 1-20-12h75v8l-22 4 32 48 37-48-23-4v-8h59v8l-19 3-46 60" id="bb"/><g id="F"><use transform="matrix(0.06234567901234567,0,0,0.06234567901234567,0,0)" xlink:href="#au"/><use transform="matrix(0.06234567901234567,0,0,0.06234567901234567,12.656172839506171,0)" xlink:href="#aq"/><use transform="matrix(0.06234567901234567,0,0,0.06234567901234567,18.89074074074074,0)" xlink:href="#am"/><use transform="matrix(0.06234567901234567,0,0,0.06234567901234567,28.8037037037037,0)" xlink:href="#bb"/><use transform="matrix(0.06234567901234567,0,0,0.06234567901234567,40.02592592592592,0)" xlink:href="#aq"/><use transform="matrix(0.06234567901234567,0,0,0.06234567901234567,46.26049382716049,0)" xlink:href="#ax"/></g><path fill="#333" d="M168-150L102 4H81L12-149c-7-2-15-4-12-16h85v11l-20 5 42 94 38-94-19-5v-11h54v11" id="bc"/><g id="G"><use transform="matrix(0.06234567901234567,0,0,0.06234567901234567,0,0)" xlink:href="#ah"/><use transform="matrix(0.06234567901234567,0,0,0.06234567901234567,8.728395061728394,0)" xlink:href="#ae"/><use transform="matrix(0.06234567901234567,0,0,0.06234567901234567,18.641358024691357,0)" xlink:href="#ad"/><use transform="matrix(0.06234567901234567,0,0,0.06234567901234567,28.554320987654318,0)" xlink:href="#bc"/><use transform="matrix(0.06234567901234567,0,0,0.06234567901234567,39.776543209876536,0)" xlink:href="#aU"/><use transform="matrix(0.06234567901234567,0,0,0.06234567901234567,46.011111111111106,0)" xlink:href="#aW"/><use transform="matrix(0.06234567901234567,0,0,0.06234567901234567,55.92407407407407,0)" xlink:href="#ae"/><use transform="matrix(0.06234567901234567,0,0,0.06234567901234567,65.83703703703704,0)" xlink:href="#aO"/><use transform="matrix(0.06234567901234567,0,0,0.06234567901234567,77.05925925925925,0)" xlink:href="#ah"/><use transform="matrix(0.06234567901234567,0,0,0.06234567901234567,85.78765432098764,0)" xlink:href="#ai"/><use transform="matrix(0.06234567901234567,0,0,0.06234567901234567,93.20679012345677,0)" xlink:href="#aT"/><use transform="matrix(0.06234567901234567,0,0,0.06234567901234567,104.42901234567898,0)" xlink:href="#ai"/><use transform="matrix(0.06234567901234567,0,0,0.06234567901234567,111.84814814814811,0)" xlink:href="#aU"/><use transform="matrix(0.06234567901234567,0,0,0.06234567901234567,118.08271604938268,0)" xlink:href="#aM"/><use transform="matrix(0.06234567901234567,0,0,0.06234567901234567,129.3049382716049,0)" xlink:href="#aV"/></g><g id="H"><use transform="matrix(0.06234567901234567,0,0,0.06234567901234567,0,0)" xlink:href="#av"/><use transform="matrix(0.06234567901234567,0,0,0.06234567901234567,9.912962962962961,0)" xlink:href="#at"/><use transform="matrix(0.06234567901234567,0,0,0.06234567901234567,21.13518518518518,0)" xlink:href="#al"/><use transform="matrix(0.06234567901234567,0,0,0.06234567901234567,28.554320987654314,0)" xlink:href="#am"/><use transform="matrix(0.06234567901234567,0,0,0.06234567901234567,38.46728395061727,0)" xlink:href="#ap"/><use transform="matrix(0.06234567901234567,0,0,0.06234567901234567,47.195679012345664,0)" xlink:href="#ap"/></g><path fill="#333" d="M126-114c3-31-27-37-49-25v123l15 4V0H10v-12l16-4v-133l-16-5v-11h64l2 14c24-16 81-33 96 3 30-24 105-39 105 27v105l17 4V0h-82v-12l14-4v-98c4-33-27-37-51-24 5 35 0 82 2 122l17 4V0h-83v-12l15-4v-98" id="bd"/><g id="I"><use transform="matrix(0.06234567901234567,0,0,0.06234567901234567,0,0)" xlink:href="#bd"/><use transform="matrix(0.06234567901234567,0,0,0.06234567901234567,18.641358024691353,0)" xlink:href="#aT"/><use transform="matrix(0.06234567901234567,0,0,0.06234567901234567,29.86358024691357,0)" xlink:href="#ah"/><use transform="matrix(0.06234567901234567,0,0,0.06234567901234567,38.59197530864196,0)" xlink:href="#ai"/><use transform="matrix(0.06234567901234567,0,0,0.06234567901234567,46.0111111111111,0)" xlink:href="#ae"/><use transform="matrix(0.06234567901234567,0,0,0.06234567901234567,55.924074074074056,0)" xlink:href="#ad"/></g><g id="J"><use transform="matrix(0.06234567901234567,0,0,0.06234567901234567,0,0)" xlink:href="#aK"/><use transform="matrix(0.06234567901234567,0,0,0.06234567901234567,17.456790123456788,0)" xlink:href="#av"/><use transform="matrix(0.06234567901234567,0,0,0.06234567901234567,27.36975308641975,0)" xlink:href="#ap"/><use transform="matrix(0.06234567901234567,0,0,0.06234567901234567,36.09814814814814,0)" xlink:href="#aq"/><use transform="matrix(0.06234567901234567,0,0,0.06234567901234567,42.33271604938271,0)" xlink:href="#am"/><use transform="matrix(0.06234567901234567,0,0,0.06234567901234567,52.245679012345676,0)" xlink:href="#al"/><use transform="matrix(0.06234567901234567,0,0,0.06234567901234567,59.66481481481481,0)" xlink:href="#ar"/><use transform="matrix(0.06234567901234567,0,0,0.06234567901234567,70.88703703703703,0)" xlink:href="#aD"/><use transform="matrix(0.06234567901234567,0,0,0.06234567901234567,82.10925925925925,0)" xlink:href="#av"/><use transform="matrix(0.06234567901234567,0,0,0.06234567901234567,92.02222222222221,0)" xlink:href="#aK"/><use transform="matrix(0.06234567901234567,0,0,0.06234567901234567,109.479012345679,0)" xlink:href="#am"/></g><g id="K"><use transform="matrix(0.06234567901234567,0,0,0.06234567901234567,0,0)" xlink:href="#ad"/><use transform="matrix(0.06234567901234567,0,0,0.06234567901234567,9.476543209876542,0)" xlink:href="#ae"/><use transform="matrix(0.06234567901234567,0,0,0.06234567901234567,19.389506172839504,0)" xlink:href="#af"/><use transform="matrix(0.06234567901234567,0,0,0.06234567901234567,31.858641975308636,0)" xlink:href="#ag"/><use transform="matrix(0.06234567901234567,0,0,0.06234567901234567,44.32777777777777,0)" xlink:href="#ae"/><use transform="matrix(0.06234567901234567,0,0,0.06234567901234567,54.24074074074073,0)" xlink:href="#ah"/><use transform="matrix(0.06234567901234567,0,0,0.06234567901234567,62.969135802469125,0)" xlink:href="#ai"/><use transform="matrix(0.06234567901234567,0,0,0.06234567901234567,70.38827160493825,0)" xlink:href="#aO"/><use transform="matrix(0.06234567901234567,0,0,0.06234567901234567,81.61049382716047,0)" xlink:href="#aW"/><use transform="matrix(0.06234567901234567,0,0,0.06234567901234567,91.52345679012343,0)" xlink:href="#aM"/><use transform="matrix(0.06234567901234567,0,0,0.06234567901234567,102.74567901234565,0)" xlink:href="#ah"/><use transform="matrix(0.06234567901234567,0,0,0.06234567901234567,111.47407407407404,0)" xlink:href="#ai"/></g><path fill="#333" d="M103-236c-39-15-35 32-34 71h44v15H69v136l35 6v8H15v-8l25-6v-136H11v-9l29-7c-6-59 23-100 80-84v36c-15 2-12-14-17-22" id="be"/><g id="L"><use transform="matrix(0.06234567901234567,0,0,0.06234567901234567,0,0)" xlink:href="#be"/><use transform="matrix(0.06234567901234567,0,0,0.06234567901234567,7.4191358024691345,0)" xlink:href="#as"/><use transform="matrix(0.06234567901234567,0,0,0.06234567901234567,13.653703703703702,0)" xlink:href="#aD"/><use transform="matrix(0.06234567901234567,0,0,0.06234567901234567,24.87592592592592,0)" xlink:href="#av"/><use transform="matrix(0.06234567901234567,0,0,0.06234567901234567,34.78888888888888,0)" xlink:href="#aw"/><use transform="matrix(0.06234567901234567,0,0,0.06234567901234567,41.02345679012345,0)" xlink:href="#ar"/><use transform="matrix(0.06234567901234567,0,0,0.06234567901234567,52.24567901234567,0)" xlink:href="#aC"/><use transform="matrix(0.06234567901234567,0,0,0.06234567901234567,62.158641975308626,0)" xlink:href="#aF"/><use transform="matrix(0.06234567901234567,0,0,0.06234567901234567,73.38086419753084,0)" xlink:href="#ap"/><use transform="matrix(0.06234567901234567,0,0,0.06234567901234567,82.10925925925923,0)" xlink:href="#aq"/></g><g id="M"><use transform="matrix(0.06234567901234567,0,0,0.06234567901234567,0,0)" xlink:href="#ap"/><use transform="matrix(0.06234567901234567,0,0,0.06234567901234567,8.728395061728394,0)" xlink:href="#aJ"/><use transform="matrix(0.06234567901234567,0,0,0.06234567901234567,19.950617283950614,0)" xlink:href="#av"/><use transform="matrix(0.06234567901234567,0,0,0.06234567901234567,29.863580246913575,0)" xlink:href="#al"/><use transform="matrix(0.06234567901234567,0,0,0.06234567901234567,37.28271604938271,0)" xlink:href="#am"/><use transform="matrix(0.06234567901234567,0,0,0.06234567901234567,47.195679012345664,0)" xlink:href="#ar"/><use transform="matrix(0.06234567901234567,0,0,0.06234567901234567,58.417901234567886,0)" xlink:href="#aJ"/><use transform="matrix(0.06234567901234567,0,0,0.06234567901234567,69.6401234567901,0)" xlink:href="#av"/><use transform="matrix(0.06234567901234567,0,0,0.06234567901234567,79.55308641975307,0)" xlink:href="#al"/><use transform="matrix(0.06234567901234567,0,0,0.06234567901234567,86.9722222222222,0)" xlink:href="#aq"/><use transform="matrix(0.06234567901234567,0,0,0.06234567901234567,93.20679012345677,0)" xlink:href="#ap"/><use transform="matrix(0.06234567901234567,0,0,0.06234567901234567,101.93518518518516,0)" xlink:href="#ar"/><use transform="matrix(0.06234567901234567,0,0,0.06234567901234567,113.15740740740738,0)" xlink:href="#aC"/><use transform="matrix(0.06234567901234567,0,0,0.06234567901234567,123.07037037037034,0)" xlink:href="#aF"/><use transform="matrix(0.06234567901234567,0,0,0.06234567901234567,134.29259259259257,0)" xlink:href="#ap"/><use transform="matrix(0.06234567901234567,0,0,0.06234567901234567,143.02098765432098,0)" xlink:href="#aq"/></g><path fill="#333" d="M53-14c58 12 82-15 82-73 0-52-35-77-82-58v131zM89 4C64 4 42-2 24-9v-229l-24-4v-8h53l-1 94c48-33 114-4 114 69 0 57-23 91-77 91" id="bf"/><g id="N"><use transform="matrix(0.06234567901234567,0,0,0.06234567901234567,0,0)" xlink:href="#aC"/><use transform="matrix(0.06234567901234567,0,0,0.06234567901234567,9.912962962962961,0)" xlink:href="#aF"/><use transform="matrix(0.06234567901234567,0,0,0.06234567901234567,21.13518518518518,0)" xlink:href="#aD"/><use transform="matrix(0.06234567901234567,0,0,0.06234567901234567,32.3574074074074,0)" xlink:href="#ap"/><use transform="matrix(0.06234567901234567,0,0,0.06234567901234567,41.08580246913579,0)" xlink:href="#ao"/><use transform="matrix(0.06234567901234567,0,0,0.06234567901234567,52.308024691358014,0)" xlink:href="#aK"/><use transform="matrix(0.06234567901234567,0,0,0.06234567901234567,69.7648148148148,0)" xlink:href="#av"/><use transform="matrix(0.06234567901234567,0,0,0.06234567901234567,79.67777777777776,0)" xlink:href="#bf"/><use transform="matrix(0.06234567901234567,0,0,0.06234567901234567,90.89999999999998,0)" xlink:href="#aw"/><use transform="matrix(0.06234567901234567,0,0,0.06234567901234567,97.13456790123455,0)" xlink:href="#am"/><use transform="matrix(0.06234567901234567,0,0,0.06234567901234567,107.04753086419751,0)" xlink:href="#ap"/><use transform="matrix(0.06234567901234567,0,0,0.06234567901234567,115.7759259259259,0)" xlink:href="#ar"/><use transform="matrix(0.06234567901234567,0,0,0.06234567901234567,126.99814814814812,0)" xlink:href="#aC"/><use transform="matrix(0.06234567901234567,0,0,0.06234567901234567,136.91111111111107,0)" xlink:href="#aF"/><use transform="matrix(0.06234567901234567,0,0,0.06234567901234567,148.1333333333333,0)" xlink:href="#ap"/><use transform="matrix(0.06234567901234567,0,0,0.06234567901234567,156.8617283950617,0)" xlink:href="#aq"/></g><g id="O"><use transform="matrix(0.06234567901234567,0,0,0.06234567901234567,0,0)" xlink:href="#aF"/><use transform="matrix(0.06234567901234567,0,0,0.06234567901234567,11.22222222222222,0)" xlink:href="#aq"/><use transform="matrix(0.06234567901234567,0,0,0.06234567901234567,17.456790123456784,0)" xlink:href="#aB"/><use transform="matrix(0.06234567901234567,0,0,0.06234567901234567,28.679012345679006,0)" xlink:href="#am"/><use transform="matrix(0.06234567901234567,0,0,0.06234567901234567,38.59197530864196,0)" xlink:href="#al"/><use transform="matrix(0.06234567901234567,0,0,0.06234567901234567,46.0111111111111,0)" xlink:href="#ap"/><use transform="matrix(0.06234567901234567,0,0,0.06234567901234567,54.73950617283949,0)" xlink:href="#ar"/><use transform="matrix(0.06234567901234567,0,0,0.06234567901234567,65.96172839506171,0)" xlink:href="#aC"/><use transform="matrix(0.06234567901234567,0,0,0.06234567901234567,75.87469135802468,0)" xlink:href="#aF"/><use transform="matrix(0.06234567901234567,0,0,0.06234567901234567,87.09691358024689,0)" xlink:href="#ap"/><use transform="matrix(0.06234567901234567,0,0,0.06234567901234567,95.82530864197528,0)" xlink:href="#aq"/></g><g id="P"><use transform="matrix(0.06234567901234567,0,0,0.06234567901234567,0,0)" xlink:href="#aK"/><use transform="matrix(0.06234567901234567,0,0,0.06234567901234567,17.456790123456788,0)" xlink:href="#av"/><use transform="matrix(0.06234567901234567,0,0,0.06234567901234567,27.36975308641975,0)" xlink:href="#aD"/><use transform="matrix(0.06234567901234567,0,0,0.06234567901234567,38.59197530864197,0)" xlink:href="#ar"/><use transform="matrix(0.06234567901234567,0,0,0.06234567901234567,49.81419753086419,0)" xlink:href="#aB"/><use transform="matrix(0.06234567901234567,0,0,0.06234567901234567,61.03641975308641,0)" xlink:href="#aF"/><use transform="matrix(0.06234567901234567,0,0,0.06234567901234567,72.25864197530863,0)" xlink:href="#ao"/><use transform="matrix(0.06234567901234567,0,0,0.06234567901234567,83.48086419753085,0)" xlink:href="#al"/><use transform="matrix(0.06234567901234567,0,0,0.06234567901234567,90.89999999999998,0)" xlink:href="#ap"/><use transform="matrix(0.06234567901234567,0,0,0.06234567901234567,99.62839506172837,0)" xlink:href="#ar"/><use transform="matrix(0.06234567901234567,0,0,0.06234567901234567,110.85061728395058,0)" xlink:href="#aC"/><use transform="matrix(0.06234567901234567,0,0,0.06234567901234567,120.76358024691355,0)" xlink:href="#aF"/><use transform="matrix(0.06234567901234567,0,0,0.06234567901234567,131.98580246913576,0)" xlink:href="#ap"/><use transform="matrix(0.06234567901234567,0,0,0.06234567901234567,140.71419753086417,0)" xlink:href="#aq"/></g><path fill="#333" d="M127-114c3-31-26-38-50-25v123l15 4V0H10v-12l16-4v-218l-17-4v-12h68l-1 99c31-23 102-32 102 30v105l17 4V0h-82v-12l14-4v-98" id="bg"/><g id="Q"><use transform="matrix(0.06234567901234567,0,0,0.06234567901234567,0,0)" xlink:href="#bc"/><use transform="matrix(0.06234567901234567,0,0,0.06234567901234567,11.22222222222222,0)" xlink:href="#ae"/><use transform="matrix(0.06234567901234567,0,0,0.06234567901234567,21.13518518518518,0)" xlink:href="#bg"/><use transform="matrix(0.06234567901234567,0,0,0.06234567901234567,33.60432098765431,0)" xlink:href="#aU"/><use transform="matrix(0.06234567901234567,0,0,0.06234567901234567,39.838888888888874,0)" xlink:href="#aW"/><use transform="matrix(0.06234567901234567,0,0,0.06234567901234567,49.75185185185184,0)" xlink:href="#aX"/><use transform="matrix(0.06234567901234567,0,0,0.06234567901234567,55.98641975308641,0)" xlink:href="#ae"/></g><g id="R"><use transform="matrix(0.06234567901234567,0,0,0.06234567901234567,0,0)" xlink:href="#aA"/><use transform="matrix(0.06234567901234567,0,0,0.06234567901234567,11.22222222222222,0)" xlink:href="#am"/><use transform="matrix(0.06234567901234567,0,0,0.06234567901234567,21.13518518518518,0)" xlink:href="#aB"/><use transform="matrix(0.06234567901234567,0,0,0.06234567901234567,32.3574074074074,0)" xlink:href="#as"/><use transform="matrix(0.06234567901234567,0,0,0.06234567901234567,38.59197530864196,0)" xlink:href="#aC"/><use transform="matrix(0.06234567901234567,0,0,0.06234567901234567,48.50493827160493,0)" xlink:href="#aw"/><use transform="matrix(0.06234567901234567,0,0,0.06234567901234567,54.7395061728395,0)" xlink:href="#am"/><use transform="matrix(0.06234567901234567,0,0,0.06234567901234567,64.65246913580246,0)" xlink:href="#ar"/><use transform="matrix(0.06234567901234567,0,0,0.06234567901234567,75.87469135802468,0)" xlink:href="#aq"/><use transform="matrix(0.06234567901234567,0,0,0.06234567901234567,82.10925925925925,0)" xlink:href="#aI"/><use transform="matrix(0.06234567901234567,0,0,0.06234567901234567,93.33148148148146,0)" xlink:href="#aJ"/><use transform="matrix(0.06234567901234567,0,0,0.06234567901234567,104.55370370370368,0)" xlink:href="#am"/></g><g id="S"><use transform="matrix(0.06234567901234567,0,0,0.06234567901234567,0,0)" xlink:href="#au"/><use transform="matrix(0.06234567901234567,0,0,0.06234567901234567,12.656172839506171,0)" xlink:href="#am"/><use transform="matrix(0.06234567901234567,0,0,0.06234567901234567,22.569135802469134,0)" xlink:href="#aD"/><use transform="matrix(0.06234567901234567,0,0,0.06234567901234567,33.791358024691355,0)" xlink:href="#ao"/><use transform="matrix(0.06234567901234567,0,0,0.06234567901234567,45.01358024691358,0)" xlink:href="#aK"/><use transform="matrix(0.06234567901234567,0,0,0.06234567901234567,62.47037037037036,0)" xlink:href="#ax"/></g><g id="T"><use transform="matrix(0.06234567901234567,0,0,0.06234567901234567,0,0)" xlink:href="#aC"/><use transform="matrix(0.06234567901234567,0,0,0.06234567901234567,9.912962962962961,0)" xlink:href="#av"/><use transform="matrix(0.06234567901234567,0,0,0.06234567901234567,19.825925925925922,0)" xlink:href="#al"/><use transform="matrix(0.06234567901234567,0,0,0.06234567901234567,27.245061728395058,0)" xlink:href="#ar"/><use transform="matrix(0.06234567901234567,0,0,0.06234567901234567,38.46728395061728,0)" xlink:href="#aD"/><use transform="matrix(0.06234567901234567,0,0,0.06234567901234567,49.6895061728395,0)" xlink:href="#ao"/><use transform="matrix(0.06234567901234567,0,0,0.06234567901234567,60.91172839506172,0)" xlink:href="#aK"/><use transform="matrix(0.06234567901234567,0,0,0.06234567901234567,78.36851851851851,0)" xlink:href="#bf"/><use transform="matrix(0.06234567901234567,0,0,0.06234567901234567,89.59074074074073,0)" xlink:href="#am"/><use transform="matrix(0.06234567901234567,0,0,0.06234567901234567,99.50370370370369,0)" xlink:href="#al"/></g><path fill="#333" d="M108-235c-52 28-62 95-58 178 3 56 21 97 58 119v15C7 49-17-153 67-223c12-10 25-19 41-27v15" id="bh"/><path fill="#333" d="M48-126c45-28 121-18 121 53 0 50-25 77-72 77-63 0-80-54-82-120-3-88 52-142 140-116v40h-12c2-42-66-39-79-8-8 20-16 43-16 74zm0 11c2 50 2 105 49 105 33 0 37-26 40-60 5-60-49-61-89-45" id="bi"/><path fill="#333" d="M12-250C113-222 137-19 52 49 40 59 28 69 12 77V62C56 37 70-16 70-87c0-70-13-123-58-148v-15" id="bj"/><g id="U"><use transform="matrix(0.06234567901234567,0,0,0.06234567901234567,0,0)" xlink:href="#au"/><use transform="matrix(0.06234567901234567,0,0,0.06234567901234567,12.656172839506171,0)" xlink:href="#aC"/><use transform="matrix(0.06234567901234567,0,0,0.06234567901234567,22.569135802469134,0)" xlink:href="#aB"/><use transform="matrix(0.06234567901234567,0,0,0.06234567901234567,33.791358024691355,0)" xlink:href="#av"/><use transform="matrix(0.06234567901234567,0,0,0.06234567901234567,43.70432098765431,0)" xlink:href="#al"/><use transform="matrix(0.06234567901234567,0,0,0.06234567901234567,51.12345679012345,0)" xlink:href="#bh"/><use transform="matrix(0.06234567901234567,0,0,0.06234567901234567,58.542592592592584,0)" xlink:href="#bi"/><use transform="matrix(0.06234567901234567,0,0,0.06234567901234567,69.7648148148148,0)" xlink:href="#bj"/><use transform="matrix(0.06234567901234567,0,0,0.06234567901234567,77.18395061728393,0)" xlink:href="#ax"/></g><g id="V"><use transform="matrix(0.06234567901234567,0,0,0.06234567901234567,0,0)" xlink:href="#aK"/><use transform="matrix(0.06234567901234567,0,0,0.06234567901234567,17.456790123456788,0)" xlink:href="#aF"/><use transform="matrix(0.06234567901234567,0,0,0.06234567901234567,28.679012345679006,0)" xlink:href="#at"/><use transform="matrix(0.06234567901234567,0,0,0.06234567901234567,39.90123456790123,0)" xlink:href="#am"/><use transform="matrix(0.06234567901234567,0,0,0.06234567901234567,49.81419753086419,0)" xlink:href="#aw"/></g><g id="W"><use transform="matrix(0.06234567901234567,0,0,0.06234567901234567,0,0)" xlink:href="#aK"/><use transform="matrix(0.06234567901234567,0,0,0.06234567901234567,17.456790123456788,0)" xlink:href="#av"/><use transform="matrix(0.06234567901234567,0,0,0.06234567901234567,27.36975308641975,0)" xlink:href="#aD"/><use transform="matrix(0.06234567901234567,0,0,0.06234567901234567,38.59197530864197,0)" xlink:href="#ao"/><use transform="matrix(0.06234567901234567,0,0,0.06234567901234567,49.81419753086419,0)" xlink:href="#be"/><use transform="matrix(0.06234567901234567,0,0,0.06234567901234567,57.23333333333333,0)" xlink:href="#av"/><use transform="matrix(0.06234567901234567,0,0,0.06234567901234567,67.14629629629628,0)" xlink:href="#aC"/><use transform="matrix(0.06234567901234567,0,0,0.06234567901234567,77.05925925925925,0)" xlink:href="#aq"/><use transform="matrix(0.06234567901234567,0,0,0.06234567901234567,83.29382716049382,0)" xlink:href="#ao"/><use transform="matrix(0.06234567901234567,0,0,0.06234567901234567,94.51604938271603,0)" xlink:href="#al"/><use transform="matrix(0.06234567901234567,0,0,0.06234567901234567,101.93518518518516,0)" xlink:href="#am"/><use transform="matrix(0.06234567901234567,0,0,0.06234567901234567,111.84814814814813,0)" xlink:href="#ar"/><use transform="matrix(0.06234567901234567,0,0,0.06234567901234567,123.07037037037034,0)" xlink:href="#aI"/><use transform="matrix(0.06234567901234567,0,0,0.06234567901234567,134.29259259259257,0)" xlink:href="#am"/><use transform="matrix(0.06234567901234567,0,0,0.06234567901234567,144.20555555555552,0)" xlink:href="#av"/><use transform="matrix(0.06234567901234567,0,0,0.06234567901234567,154.11851851851847,0)" xlink:href="#al"/></g><path fill="#333" d="M142-52V0h-30v-52H7v-23l115-162h20v160h32v25h-32zm-30-25l-1-119L27-77h85" id="bk"/><g id="X"><use transform="matrix(0.06234567901234567,0,0,0.06234567901234567,0,0)" xlink:href="#au"/><use transform="matrix(0.06234567901234567,0,0,0.06234567901234567,12.656172839506171,0)" xlink:href="#aC"/><use transform="matrix(0.06234567901234567,0,0,0.06234567901234567,22.569135802469134,0)" xlink:href="#aB"/><use transform="matrix(0.06234567901234567,0,0,0.06234567901234567,33.791358024691355,0)" xlink:href="#av"/><use transform="matrix(0.06234567901234567,0,0,0.06234567901234567,43.70432098765431,0)" xlink:href="#al"/><use transform="matrix(0.06234567901234567,0,0,0.06234567901234567,51.12345679012345,0)" xlink:href="#bh"/><use transform="matrix(0.06234567901234567,0,0,0.06234567901234567,58.542592592592584,0)" xlink:href="#bk"/><use transform="matrix(0.06234567901234567,0,0,0.06234567901234567,69.7648148148148,0)" xlink:href="#bj"/><use transform="matrix(0.06234567901234567,0,0,0.06234567901234567,77.18395061728393,0)" xlink:href="#ax"/></g><g id="Z"><use transform="matrix(0.06234567901234567,0,0,0.06234567901234567,0,0)" xlink:href="#aC"/><use transform="matrix(0.06234567901234567,0,0,0.06234567901234567,9.912962962962961,0)" xlink:href="#aF"/><use transform="matrix(0.06234567901234567,0,0,0.06234567901234567,21.13518518518518,0)" xlink:href="#aw"/><use transform="matrix(0.06234567901234567,0,0,0.06234567901234567,27.369753086419745,0)" xlink:href="#aF"/><use transform="matrix(0.06234567901234567,0,0,0.06234567901234567,38.59197530864196,0)" xlink:href="#al"/></g><g id="aa"><use transform="matrix(0.06234567901234567,0,0,0.06234567901234567,0,0)" xlink:href="#am"/><use transform="matrix(0.06234567901234567,0,0,0.06234567901234567,9.912962962962961,0)" xlink:href="#aD"/><use transform="matrix(0.06234567901234567,0,0,0.06234567901234567,21.13518518518518,0)" xlink:href="#aE"/><use transform="matrix(0.06234567901234567,0,0,0.06234567901234567,32.3574074074074,0)" xlink:href="#as"/><use transform="matrix(0.06234567901234567,0,0,0.06234567901234567,38.59197530864196,0)" xlink:href="#aD"/><use transform="matrix(0.06234567901234567,0,0,0.06234567901234567,49.814197530864185,0)" xlink:href="#am"/><use transform="matrix(0.06234567901234567,0,0,0.06234567901234567,59.72716049382714,0)" xlink:href="#ar"/><use transform="matrix(0.06234567901234567,0,0,0.06234567901234567,70.94938271604936,0)" xlink:href="#aC"/><use transform="matrix(0.06234567901234567,0,0,0.06234567901234567,80.86234567901232,0)" xlink:href="#av"/><use transform="matrix(0.06234567901234567,0,0,0.06234567901234567,90.77530864197529,0)" xlink:href="#aJ"/><use transform="matrix(0.06234567901234567,0,0,0.06234567901234567,101.9975308641975,0)" xlink:href="#av"/><use transform="matrix(0.06234567901234567,0,0,0.06234567901234567,111.91049382716047,0)" xlink:href="#aC"/><use transform="matrix(0.06234567901234567,0,0,0.06234567901234567,121.82345679012343,0)" xlink:href="#as"/><use transform="matrix(0.06234567901234567,0,0,0.06234567901234567,128.05802469135799,0)" xlink:href="#aq"/><use transform="matrix(0.06234567901234567,0,0,0.06234567901234567,134.29259259259254,0)" xlink:href="#aI"/></g><g id="ab"><use transform="matrix(0.06234567901234567,0,0,0.06234567901234567,0,0)" xlink:href="#au"/><use transform="matrix(0.06234567901234567,0,0,0.06234567901234567,12.656172839506171,0)" xlink:href="#aD"/><use transform="matrix(0.06234567901234567,0,0,0.06234567901234567,23.87839506172839,0)" xlink:href="#ao"/><use transform="matrix(0.06234567901234567,0,0,0.06234567901234567,35.10061728395061,0)" xlink:href="#aK"/><use transform="matrix(0.06234567901234567,0,0,0.06234567901234567,52.557407407407396,0)" xlink:href="#am"/><use transform="matrix(0.06234567901234567,0,0,0.06234567901234567,62.47037037037036,0)" xlink:href="#al"/><use transform="matrix(0.06234567901234567,0,0,0.06234567901234567,69.88950617283949,0)" xlink:href="#as"/><use transform="matrix(0.06234567901234567,0,0,0.06234567901234567,76.12407407407406,0)" xlink:href="#aC"/><use transform="matrix(0.06234567901234567,0,0,0.06234567901234567,86.03703703703702,0)" xlink:href="#ax"/></g><g id="ac"><use transform="matrix(0.06234567901234567,0,0,0.06234567901234567,0,0)" xlink:href="#aq"/><use transform="matrix(0.06234567901234567,0,0,0.06234567901234567,6.234567901234566,0)" xlink:href="#al"/><use transform="matrix(0.06234567901234567,0,0,0.06234567901234567,13.653703703703702,0)" xlink:href="#av"/><use transform="matrix(0.06234567901234567,0,0,0.06234567901234567,23.566666666666663,0)" xlink:href="#aD"/><use transform="matrix(0.06234567901234567,0,0,0.06234567901234567,34.788888888888884,0)" xlink:href="#ap"/><use transform="matrix(0.06234567901234567,0,0,0.06234567901234567,43.517283950617276,0)" xlink:href="#aK"/><use transform="matrix(0.06234567901234567,0,0,0.06234567901234567,60.97407407407407,0)" xlink:href="#as"/><use transform="matrix(0.06234567901234567,0,0,0.06234567901234567,67.20864197530864,0)" xlink:href="#ap"/><use transform="matrix(0.06234567901234567,0,0,0.06234567901234567,75.93703703703703,0)" xlink:href="#ap"/><use transform="matrix(0.06234567901234567,0,0,0.06234567901234567,84.66543209876542,0)" xlink:href="#as"/><use transform="matrix(0.06234567901234567,0,0,0.06234567901234567,90.89999999999999,0)" xlink:href="#aF"/><use transform="matrix(0.06234567901234567,0,0,0.06234567901234567,102.1222222222222,0)" xlink:href="#aD"/></g></defs></g></svg>